/* XPM */
static char *result[] = {
/* columns rows colors chars-per-pixel */
"64 64 8 1 ",
"  c #100D0D",
". c #1B1616",
"X c #2D2727",
"o c #591010",
"O c #BC1313",
"+ c #DBCDCD",
"@ c #F0EAEA",
"# c black",
/* pixels */
"################################################################",
"###############.......X#########################################",
"#############.......XXXXXXX#####################################",
"###########......XXXXXXXXXXX####################################",
"#########.......XXXXXXXXXXXXX###################################",
"########........XXXXXXXXXXXXXX##################################",
"########.......XXXXXXXXXXXXXXXXX################################",
"#######........XXXX  XXXXXXXXXXXX###############################",
"######......X.XXXX    XXXXXXXXXXXX##############################",
"#####.......XXXXXX @   XXXXXXXXXXXXX############################",
"#####.......XXXXXX     XXXXXXXXXXXXXX###########################",
"####.......XXXXXXXX   XXXXXXXXXXXXXXXX##########################",
"####.....X.XXXXXXXXXXXXXXXXXXXXXXXXXXXX#########################",
"###.....XXXXXXXXXXXXXXXXXXXXXXXXXXXXXXXX########################",
"###.....XXXXXXXXXXXXXXXXXXXXXXXXXXXXXXXXXX######################",
"###....XX  XXXXXXXXXXXX++XXXXXXXXXXXXXXXXXX#####################",
"###....X    XXXXXXXX   ++XXXXXXXXXXXXXXXXXXXXXX#################",
"###....X @   XXXXXX     ++XXXXXXXXXXXXXXXXXXXXXXX###############",
"###....X     XXXXX    OOOXXXXXXXXXXXXXXXXXXXXXXXXX##############",
"###....XX   XXXXX     OOOOXXXXXXXXXXXXXXXXXXXXXXXXXX############",
"###......XXXXXXXX      OOOXXXXXXXXXXXXXXXXXXXXXXXXXXX###########",
"###.......XXXXX++      OOOXXXXXXXXXXXXXXXXXXXXXXXXXXXX##########",
"###.......XXXXX++  oooooOOOXXXXXXXXXXX..XXXXXXXXXXXXXXX#########",
"####......XXXXXX++ooooooOOOXXXXXXXXXXX...XXXXXXXXXXXXXX#########",
"####......XXXXXXX+XXoooooOOXXXXXXXXXXXX....XXXXXXXXXXXXX########",
"#####.....XXXXXXXXXXXXXoooOXXXXXXXXXXX  ...XXXXXXXXXXXXX########",
"#####......XXXXXXXXXXXXXooOOXXXXXXXXXXX  ...X.XXXXXXXXXX########",
"######......XXXXXXXXXXXXoooOXXXXXXXXXXXX  ....XXXXXXXXXX########",
"#######.....XXXXXXXXXXXXXooOXXXXXXXXXXXXX  ......XXXXXXX########",
"#######X.....XXXXXXXXXXXXXoOXXXXXXXXXXXXXX .....XXXXXXXX########",
"########......XXXXXXXXXXXXXXXXXXXXXXXXXXXX ....XXXXXXX  ########",
"########..X..XXXXXXXXXXXXXXXXXXXXXXXXXXXX  ...XXXXXXXX #########",
"########...XXXXXXXXXXXXXXXXXXXXXXXXXXXXXX  ...XXXXXXX  #########",
"########...XXXXXXXX XXXXXXXXXXXXXXXXXXXXX  ..XXXXXXX  ##########",
"########...XXXXXXXX   XXXXXXXXXXXXXXXXXX  ..XXXXXXX  ###########",
"########....XXXXXXXXX  XXXXXXXXXXXXXXXXX  ..XXXXXXX X###########",
"########....XXXXXXXXXX  XXXXXXXXXXXXXXXX  .XXXXXXX XX###########",
"#########...XXXXXXXXXXX  XXXXXXXXXXXXXXX ..XXXXX   XX###########",
"#########....XXXXXXXXXXX XXXXXXXXXXXXXXX  XXXXX  XXXX###########",
"#########......XXXXXXXXX  XXXXXXXXXXXXXXX       XXXXX###########",
"######### ......XXXXXXXXX  XXXXXXXXXXXXXXXXXXXXXXXXXXX##########",
"########## .....XXXXXXXXXX XXXXXXXXXXXXXXXXXXXXXXXXXXX##########",
"##########  ...X..XXXXXXXX XXXXXXXXXXXXXXXXXXXXXXXXXXX##########",
"###########  ........XXXXX XXXXXXXXXXXXXXXXXXXXXXXXXXX##########",
"############  .........XXX XXXXXXXXXXXXXXXXXXXXXXXXXXX##########",
"############..  ........   XXXXXXXXXXXXXXXXXXXXXXXXXXX##########",
"############...          XXXXXXXXXXXXXXXXXXXXXXXXXXXXX##########",
"############....XXXXXXXXXXXXXXXXXXXXXXXXXXXXXXXXXXXXXX##########",
"############....XXXXXXXXXXXXXXXXXXXXXXXXXXXXXXXXXXXXXX##########",
"############.......XXXXXXXXXXXXXXXXXXXXXXXXXXXXXXXXXXX##########",
"############.......XXXXXXXXXXXXXXXXXXXXXXXXXXXXXXXXXXX##########",
"############......XXXXXXXXXXXXXXXXXXXXXXXXXXXXXXXXXXXX##########",
"############...XXXXXXXXXXXXXXXXXXXXXXXXXXXXXXXXXXXXXXX##########",
"############...XXXXXXXXXXXXXXXXXXXXXXXXXXXXXXXXXXXXXXX##########",
"############...XXXXXXXXXXXXXXXXXXXXXXXXXXX..XXXXXXXXXX##########",
"############..XXXXXXXXXXXXXXXXXXXXXXXXX.......XXXXXXXX##########",
"############..XXXXXX....................####...XXXXXXX##########",
"############.XXXXXX....######################..XXXXXXX##########",
"############.XXXXX.....######################..XXXXXXX##########",
"############.XXXXX.....######################....XXXXX##########",
"############.XXXX.....########################...XXXXX##########",
"############..XXX....#########################...XXXXX##########",
"#############..XXX..###########################..X.XX###########",
"##############.....#############################....############"
};
