/* XPM */
static char *result[] = {
/* columns rows colors chars-per-pixel */
"64 64 8 1 ",
"  c #100D0D",
". c #1B1616",
"X c #2D2727",
"o c #591010",
"O c #BC1313",
"+ c #DBCDCD",
"@ c #F0EAEA",
"# c black",
/* pixels */
"################################################################",
"#############################..............#####################",
"###########################.................####################",
"#########################.................X..###################",
"########################.................XX....#################",
"########################.....X.........XXXXXX.X.################",
"#######################......XXX..XXXXXXXXXXXXXXX###############",
"######################......XXXXXXXXXXXXXXXXXXXXXX##############",
"######################....X  XXXXXXXXXXXX  XXXXXXX##############",
"#####################....X    XXXXXXXXX     XXXXXX##############",
"####################....XX @  XXXXXXXXX @  XXXXXXXX#############",
"####################.....X    XXXXXXXXX    XXXXXXXX#############",
"####################......   XXXXXXXXXXX  XXXXXXXXX#############",
"###################.......XXXXXXXXXXXXXXXXXXXXXXXXXX############",
"###################......XXXXXXXXXXXXXXXXXXXXXXXXXXX############",
"###################......XXXXXXXXXXXXXXXXXXXXXXXXXXX############",
"###################.....XXXXXXXX X     XXXXXXXXXXXXXX###########",
"###################.....XXXXXX++       ++XXXXXXXXXXXX###########",
"##################......XXXXX++        ++XXXXXXXXXXXX###########",
"##################.....XXXXXX+oo    OO +XXXXXXXXXXXXX###########",
"##################.....XXXXXX+Xooo  OOXXXXXXXXXXXXXXX###########",
"#################..X...XXXXXXXXXooooOXXXXXXXXXXXXXXXX###########",
"################.......XXXXXXXXXooooOXXXXXXXXXXXXXXXXX##########",
"################...XXX.XXXXXXXXXXoooXXXXXXXXXXXXXXXXXX##########",
"###############....XXXXXXXXXXXXXXXooXXXXXXXXXXXXXXXXXXX#########",
"###############....XXXXXXXXXXXXXXXoXXXXXXXXXXXXXXXXXXXXX########",
"###############...XXXXXXXXXXXXXXXXXXXXXXXXXXXXXXXXXXXXXX########",
"##############....XXXXXXXXXXXXXXXXXXXXXXXXXXXXXXXXXXXXXXX#######",
"##############...XXXXXXXXXXXXXXXXXXXXXXXXXXXXXXXXXXXXXXXX#######",
"##############...XXXXXXX  XXXXXXXXXXXXXXXXXXXXXXXXXXXXXXXX######",
"############# ....XXXXXXX  XXXXXXXXXXXXXXXXXXXXXXXXXXXXXX.######",
"############# .....XXXXXXX XXXXXXXXXXXXXXXXXXX.XXXXXXXXXXX######",
"############# .....XXXXXXX XXXXXXXXXXXXXXXXXX ..XXXXXXXXXX######",
"############# ...XXXXXXXXX XXXXXXXXXXXXXXXXXX ..XXXXXXXXXX######",
"#############. ....XXXXXXX XXXXXXXXXXXXXXXXXX ...XXXXXXXXX######",
"##############  ...XXXXXXX XXXXXXXXXXXXXXXXXX ...XXXXXXXXX######",
"############### .....XXXXX XXXXXXXXXXXXXXXXXX ....XXXXXXXX######",
"############### .....XXXXX XXXXXXXXXXXXXXXXXX ....XXXXXXXX######",
"###############. ....XXXXX XXXXXXXXXXXXXXXXXX ...XXXXXXXX#######",
"###############.X  ..XXXX XXXXXXXXXXXXXXXXXXX ...XXXXXXXX#######",
"##############...XX .XXXX XXXXXXXXXXXXXXXXXX ...XXXXXXX ########",
"##############....XX .XX XXXXXXXXXXXXXXXXXXX ...XXXXXX  ########",
"##############....XXX    XXXXXXXXXXXXXXXXXXX ...XXXXX XX########",
"##############.....XXXXXXXXXXXXXXXXXXXXXXXXXX .XXX   XXX########",
"##############.....XXXXXXXXXXXXXXXXXXXXXXXXXX     XXXXXX########",
"##############......XXXXXXXXXXXXXXXXXXXXXXXXXXXXXXXXXXXX########",
"##############....X.XXXXXXXXXXXXXXXXXXXXXXXXXXXXXXXXXXXX########",
"##############.......XXXXXXXXXXXXXXXXXXXXXXXXXXXXXXXXXXX########",
"#############........XXXXXXXXXXXXXXXXXXXXXXXXXXXXXXXXXXX########",
"#############........XXXXXXXXXXXXXXXXXXXXXXXXXXXXXXXXXXX########",
"#############...XXX...XXXXXXXXXXXXXXXXXXXXXXXXXXXXXXXXX#########",
"#############...XXXX..XXXXXXXXXXXXXXXXXXXXXXXXXXXXXXXXX#########",
"#############...XXXXXXXXXXXXXXXXXXXXXXXXXXXXXXXXXXXXXXX#########",
"#############..XXXXXXXXXXXXXXXXXXXXXXXXXXXXXXXXXXXXXXXX#########",
"#############..XXXXXXXXXXXXXXXXXXXXXXXXXXXXXXX.XXXXXXXX#########",
"#############.XXXXXX...........XXXXXXXXX........XXXXXXX#########",
"#############.XXXXX.....#######.................XXXXXXX#########",
"#############.XXXXX.....#####################...XXXXXXX#########",
"#############.XXX.......######################...XXXXXX#########",
"#############.XXX.....########################..XXXXXXX#########",
"#############..XXX...#########################...XXXXX##########",
"##############.....############################..XXXXX##########",
"###############################################..XXXXX##########",
"#################################################....###########"
};
