/* XPM */
static char *result[] = {
/* columns rows colors chars-per-pixel */
"64 64 8 1 ",
"  c #100D0D",
". c #1B1616",
"X c #2D2727",
"o c #591010",
"O c #BC1313",
"+ c #DBCDCD",
"@ c #F0EAEA",
"# c black",
/* pixels */
"################################################################",
"###########################################........#############",
"#######################################..............###########",
"######################################.................#########",
"#####################################.....X..............#######",
"####################################....XXXXXXXX..X.......######",
"##################################.....XXXXXXXXX.XXX......######",
"#################################......XXXXXX  XXXXX.XX....#####",
"################################....XX.XXXXX    XXXX.XX.X...####",
"##############################....X.XXXXXXX   @ XXXX.XXXXX...###",
"#############################.....XXXXXXXXX     XXXXXXXXXXX..###",
"############################......XXXXXXXXXX   XXXXXXXXXXXX..X##",
"###########################.....XXXXXXXXXXXXXXXXXXXXXXXXXXXXXX##",
"##########################......XXXXXXXXXXXXXXXXXXXXXXXXXXXXXXX#",
"#########################.......XXXXXXXXXXXXXXXXXXXXXXXXXXXXXXX#",
"########################......XXXXXXXXXXX++XXXXXXXXXXXX  XXXXXX#",
"#######################......XXXXXXXXXXXX++   XXXXXXXX    XXXXX#",
"######################.......XXXXXXXXXXX++     XXXXXX   @ XXXXX#",
"#####################.......XXXXXXXXXXXXXOOO    XXXXX     XXXXX#",
"####################.....X.XXXXXXXXXXXXXOOOO     XXXXX   XXXXXX#",
"###################..X...XXXXXXXXXXXXXXXOOO      XXXXXXXXXXXXXX#",
"##################......XXXXXXXXXXXXXXXXOOO      ++XXXXXXXXXXXX#",
"#################.....X.XXXXXXXXXXXXXXXOOOooooo  ++XXXXXXXXXXXX#",
"################......XXXXXXXXXXXXXXXXXOOOoooooo++XXXXXXXXXXXX##",
"################......XXXXXXXXXXXXXXXXXOOoooooXX+XXXXXXXXXXXXX##",
"###############.......XXXXXXX XXXXXXXXXOoooXXXXXXXXXXXXXXXXXX###",
"###############....X.XXXXXXXX XXXXXXXXOOooXXXXXXXXXXXXXXXXXXX###",
"##############.....XXXXXXXXXX XXXXXXXXOoooXXXXXXXXXXXXXXXXXX####",
"##############.....XXXXXXXXX XXXXXXXXXOooXXXXXXXXXXXXXXXXXX#####",
"##############....XXXXXXXXXX XXXXXXXXXOoXXXXXXXXXXXXXXXXXXX#####",
"##############....XXXXXXXXXX  XXXXXXXXXXXXXXXXXXXXXXXXXXXX######",
"##############. ....XXXXXXXXX  XXXXXXXXXXXXXXXXXXXXXXXXXXX######",
"#############..  ...XXXXXXXXX  XXXXXXXXXXXXXXXXXXXXXXXXXXX######",
"#############... ...XXXXXXXXXX  XXXXXXXXXXXXXX XXXXXXXXXXX######",
"#############...  ...XXXXXXXXXX  XXXXXXXXXXX   XXXXXXXXXXX######",
"############.....  ...XXXXXXXXXX  XXXXXXXXX  XXXXXXXXXXXXX######",
"############.....X ....XXXXXXXXX . XXXXXXX  XXXXXXXXXXXXXX######",
"############....XX   ....XXXXXXX.  XXXXXX  XXXXXXXXXXXXXX#######",
"############...XXXX.  .....XXXXXX  XXXXXX XXXXXXXXXXXXXXX#######",
"############...XXXXXX   ...XXXX   XXXXXX  XXXXXXXXXXXXXXX#######",
"############...XXXXXXX..        XXXXXXX  XXXXXXXXXXXXXXX #######",
"############...XXXXXXXXXXXXXXXXXXXXXXXX XXXXXXXXXXXXXXX ########",
"############....XXXXXXXXXXXXXXXXXXXXXXX XXXXXXXXXXXXXX  ########",
"############....XXXXXXXXXXXXXXXXXXXXXXX XXXXXXXXXXXXX  #########",
"############....XXXXXXXXXXXXXXXXXXXXXXX XXXXXXXXXXXX  ##########",
"############......XXXXXXXXXXXXXXXXXXXXX   XXXXXXXX  ..##########",
"############........XXXXXXXXXXXXXXXXXXXXX          XXX##########",
"############.......XXXXXXXXXXXXXXXXXXXXXXXXXXXXXXXXXXX##########",
"############....XXXXXXXXXXXXXXXXXXXXXXXXXXXXXXXXXXXXXX##########",
"############...XXXXXXXXXXXXXXXXXXXXXXXXXXXXXXXXXXXXXXX##########",
"############....XXXXXXXXXXXXXXXXXXXXXXXXXXXXXXXXXXXXXX##########",
"############....XXXXXXXXXXXXXXXXXXXXXXXXXXXXXXXXXXXXXX##########",
"############....XXXXXXXXXXXXXXXXXXXXXXXXXXXXXXXXXXXXXX##########",
"############...XXXXXXXXXXXXXXXXXXXXXXXXXXXXXXXXXXXXXXX##########",
"############...XXXXXXXXXXXXXXXXXXXXXXXXXXXXXXXXXXXXXXX##########",
"############..X.XXXXXXXXXX.XXXXXXXXXXXXXXXXXXXXXXXXXXX##########",
"############....XXXXXX####....................XXXXXXXX##########",
"############...XXXXXX######################....XXXXXXX##########",
"############...XXXXXX######################.....XXXXXX##########",
"############...XXXXXX######################.....XXXXXX##########",
"############....XXXX########################.....XXXXX##########",
"############.....XXX#########################....XXXXX##########",
"#############....XX###########################..XXXXX###########",
"##############....#############################.....############"
};
