/* XPM */
static char *_bcab3d2f4274a0fd7235be6471b56c4DRP3qkpx17lfQxHZ[] = {
/* columns rows colors chars-per-pixel */
"64 64 10 1 ",
"  c black",
". c #162836",
"X c #614413",
"o c #C06D0A",
"O c #FE8F0F",
"+ c #748080",
"@ c #B1A498",
"# c #F4DFA3",
"$ c #B7D7E5",
"% c #FEF8EB",
/* pixels */
"                                                                ",
"                                                                ",
"                                                                ",
"                                                                ",
"                                                                ",
"                                                                ",
"                                                                ",
"                                                                ",
"                                                                ",
"                                                                ",
"                                                                ",
"                                                                ",
"                                                                ",
"                                                                ",
"                                                                ",
"                                                                ",
"                                                                ",
"                                                                ",
"                                                                ",
"                                                                ",
"                                                                ",
"                                                                ",
"                                                                ",
"                                                                ",
"                                                                ",
"                                                                ",
"                                                                ",
"                                                                ",
"                                                                ",
"                                                                ",
"                                                                ",
"                                                                ",
"                                                                ",
"                                                                ",
"                                                                ",
"                                                                ",
"                                                                ",
"                                                                ",
"                                                                ",
"                                                                ",
"                                                                ",
"                      ..               ..                       ",
"                    ..++..           ..++..                     ",
"                   ..++++.............++++..                    ",
"                  .oX@%+@XoooooooooooX@$+@Xo.                   ",
"                  ...$+@$.............$+@$...                   ",
"                  .oX%%%%oOOOOOOOOOOOo%%%%Xo.                   ",
"                  .oX$%+%o######OOOOOo$%+%Xo.                   ",
"                 ..XX$+@$XXooooooooXXX$+@$X...                  ",
"                .+.oX@@@@o###OoXoOOOOo@@@@Xo.+.                 ",
"                .%.oX@@@@oOOOo%%$oOOOo@@@@Xo.%.                 ",
"                .@.oX@+++ooo.%...$.ooo@++@Xo.@.                 ",
"                .+.oX@+++oo.X$XXX$X.oo+++@Xo.+.                 ",
"                 ....@$X+...+@+++@+...+@X@....                  ",
"                  .oX@X++Xo.@.@@@.@.oX+X+@Xo.                   ",
"                  .XX@@@@XX.%%%%%%$.XX@@@@XX.                   ",
"                 .ooX$%%%Xo.+++++++.oX%%%$Xoo.                  ",
"                 .oXX++++XX.+++.+++.XX++++XXo.                  ",
"                 ....@$$@...+++.+++...@$$@....                  ",
"                   .........@++%++@.........                    ",
"                   ..XXXX.X.+@@@$$+.X.XXXX..                    ",
"                   ..XXXX.XX.+@$$+.XX.XXXX..                    ",
"                   ..XXXX.XXX.....XXX.XXXX..                    ",
"                   ..XXXX.XXXXXXXXXXX.XXXX..                    "
};
