/* XPM */
static char *d0e3cd26c08b4ad1807e2da2eb7ad118DbfUhfJZRm5RvV6G[] = {
/* columns rows colors chars-per-pixel */
"64 64 10 1 ",
"  c black",
". c #162836",
"X c #614413",
"o c #C06D0A",
"O c #FE8F0F",
"+ c #748080",
"@ c #B1A498",
"# c #F4DFA3",
"$ c #B7D7E5",
"% c #FEF8EB",
/* pixels */
"                                                                ",
"                                                                ",
"                                                                ",
"                                                                ",
"                                                                ",
"                                                                ",
"                                                                ",
"                                                                ",
"                                                                ",
"                                                                ",
"                                                                ",
"                                                                ",
"                                                                ",
"                                                                ",
"                                                                ",
"                                                                ",
"             ....                              ....             ",
"             ....                              ....             ",
"         ....++++....                      ....++++....         ",
"         ....++++....                      ....++++....         ",
"       ....++++++++..........................++++++++....       ",
"       ....++++++++..........................++++++++....       ",
"     ..ooXX@@%%++@@XXooooooooooooooooooooooXX@@$$++@@XXoo..     ",
"     ..ooXX@@%%++@@XXooooooooooooooooooooooXX@@$$++@@XXoo..     ",
"     ......$$++@@$$..........................$$++@@$$......     ",
"     ......$$++@@$$..........................$$++@@$$......     ",
"     ..ooXX%%%%%%%%ooOOOOOOOOOOOOOOOOOOOOOOoo%%%%%%%%XXoo..     ",
"     ..ooXX%%%%%%%%ooOOOOOOOOOOOOOOOOOOOOOOoo%%%%%%%%XXoo..     ",
"     ..ooXX%%$$$$%%oo########OOOOOOOOOOOOOOoo%%$$$$%%XXoo..     ",
"     ..ooXX$$%%++%%oo############OOOOOOOOOOoo$$%%++%%XXoo..     ",
"     ..ooXX$$%%++%%oo############OOOOOOOOOOoo$$%%++%%XXoo..     ",
"   ....XXXX$$++@@$$XXXXooooooooooooooooXXXXXX$$++@@$$XX......   ",
"   ....XXXX$$++@@$$XXXXooooooooooooooooXXXXXX$$++@@$$XX......   ",
" ..++..ooXX@@@@@@@@oo######OOooXXooOOOOOOOOoo@@@@@@@@XXoo..++.. ",
" ..++..ooXX@@@@@@@@oo######OOooXXooOOOOOOOOoo@@@@@@@@XXoo..++.. ",
" ..%%..ooXX@@@@@@@@ooOOOOOOoo%%%%$$ooOOOOOOoo@@@@@@@@XXoo..%%.. ",
" ..%%..ooXX@@@@@@@@ooOOOOOOoo%%%%$$ooOOOOOOoo@@@@@@@@XXoo..%%.. ",
" ..@@..ooXX@@++++++oooooo..%%......$$..oooooo@@++++@@XXoo..@@.. ",
" ..@@..ooXX@@++++++oooooo..%%......$$..oooooo@@++++@@XXoo..@@.. ",
" ..++..ooXX@@++++++oooo..XX$$XXXXXX$$XX..oooo++++++@@XXoo..++.. ",
" ..++..ooXX@@++++++oooo..XX$$XXXXXX$$XX..oooo++++++@@XXoo..++.. ",
"   ........@@$$XX++......++@@++++++@@++......++@@XX@@........   ",
"   ........@@$$XX++......++@@++++++@@++......++@@XX@@........   ",
"     ..ooXX@@XX++++XXoo..@@..@@@@@@..@@..ooXX++XX++@@XXoo..     ",
"     ..ooXX@@XX++++XXoo..@@..@@@@@@..@@..ooXX++XX++@@XXoo..     ",
"     ..XXXX@@@@@@@@XXXX..%%%%%%%%%%%%$$..XXXX@@@@@@@@XXXX..     ",
"     ..XXXX@@@@@@@@XXXX..%%%%%%%%%%%%$$..XXXX@@@@@@@@XXXX..     ",
"   ..ooooXX$$%%%%%%XXoo..++++++++++++++..ooXX%%%%%%$$XXoooo..   ",
"   ..ooooXX$$%%%%%%XXoo..++++++++++++++..ooXX%%%%%%$$XXoooo..   ",
"   ..ooXXXX++++++++XXXX..++++++..++++++..XXXX++++++++XXXXoo..   ",
"   ..ooXXXX++++++++XXXX..++++++..++++++..XXXX++++++++XXXXoo..   ",
"   ........@@$$$$@@......++++++..++++++......@@$$$$@@........   ",
"   ........@@$$$$@@......++++++..++++++......@@$$$$@@........   ",
"       ..................@@++++%%++++@@..................       ",
"       ..................@@++++%%++++@@..................       ",
"       ....XXXXXXXX..XX..++@@@@@@$$$$++..XX..XXXXXXXX....       ",
"       ....XXXXXXXX..XXXX..++@@$$$$++..XXXX..XXXXXXXX....       ",
"       ....XXXXXXXX..XXXX..++@@$$$$++..XXXX..XXXXXXXX....       ",
"       ....XXXXXXXX..XXXXXX..........XXXXXX..XXXXXXXX....       ",
"       ....XXXXXXXX..XXXXXX..........XXXXXX..XXXXXXXX....       ",
"       ....XXXXXXXX..XXXXXXXXXXXXXXXXXXXXXX..XXXXXXXX....       ",
"       ....XXXXXXXX..XXXXXXXXXXXXXXXXXXXXXX..XXXXXXXX....       ",
"         ..............................................         ",
"         ..............................................         "
};
