/* XPM */
static char *result[] = {
/* columns rows colors chars-per-pixel */
"64 64 9 1 ",
"  c #3D342F",
". c #5F4E46",
"X c #7F685D",
"o c #846D62",
"O c #9F8273",
"+ c #AB9990",
"@ c #C9CBB0",
"# c #D8DAC7",
"$ c black",
/* pixels */
"$$$$$$$$$$$$$$$$$$$$$$$$$$$$$$$$$$$$$$$$$$$$$$$$$$$$$$$$$$$$$$$$",
"$$$$$$$$$$$$$$$$$$$$$$$$$$$$$ooooooooo$$$$$$$$$$$$$$$$$$$$$$$$$$",
"$$$$$$$$$$$$$$$$$$$$$$$$$$..oOOOOOOOOOOoo$$$$$$$$$$$$$$$$$$$$$$$",
"$$$$$$$$$$$$$$$$$$$$$$$$$..oOOOOOOOOOOOOooo$$$$$$$$$$$$$$$$$$$$$",
"$$$$$$$$$$$$$$$$$$$$$$$$..oOOOOOOOOooOOOOOoo$$$$$$oooo$$$$$$$$$$",
"$$$$$$$$$$$$$$$$$$$$$$...oOOOOOOOOooOOOOOOOoo$$oOOOoooo$$$$$$$$$",
"$$$$$$$$$$$$$$$$$$$$$$.ooOOOOooOOOoOOOOOO...oooOOoooooo$$$$$$$$$",
"$$$$$$$$$$$$$$$$$$$$$.ooOOOoooOOOooOOOO...ooooOooooo$$$$$$$$$$$$",
"$$$$$$$$$$$$$$$$$$$$..ooOOOoOOoooOOOOO... OOOoooooo$$$$$$$$$$$$$",
"$$$$$$$$$$$$$$$$$$$$..oooOOoOOoOOOOOO..   OOOoooo$$$$$$$$$$$$$$$",
"$$$$$$$$$$$$$$$$$$$$...ooOOOOOOOOOOOO.O   OOOooo$$$$$$$$$$$$$$$$",
"$$$$$$$$$$$$$$$$$$$$...ooOOOOOOOOO.OOOOOOOOOOoo$$$$$$$$$$$$$$$$$",
"$$$$$$$$$$$$$$$$$$$$..ooooOOOOOOOo.OoOOOOOOOOo$$$$$$$$$$$$$$$$$$",
"$$$$$$$$$$$$$$$$$$$$.oooooOOOOOOO..OooOOOOOOOo$$$$$$$$$$$$$$$$$$",
"$$$$$$$$$$$$$$$$$$$$..oooOOOOOOOo.OO+oOOOOOOOo$$$ooooo$$$$$$$$$$",
"$$$$$$$$$$$$$$$$$$$$..ooOOoOOOo..OOO++oOOOOOOo$$ooOooo$$$$$$$$$$",
"$$$$$$$$$$$$$$$$$$$$$.ooOOoooo..OOOOO++oOOOOOo$$oOOooo$$$$$$$$$$",
"$$$$$$$$$$$$$$$$$$$$$..ooOO....OOOOOOO++oOOOoo$$$oOOoooo$$$$$$$$",
"$$$$$$$$$$$$$$$$$$$.oo.ooOOOOOOOOOOOOOO++ooOo$$$$$OOoooooo$$$$$$",
"$$$$$$$$$$$$$$$$$$$.o+OoooOOOOOOOOOOOOOO++ooo$$$$$OOooOOooo$$$$$",
"$$$$$$$$$$$$$$$$$$$..++OoooOOOOOOOOOOOOO++++oo$$$$OOo$$OOoo$$$$$",
"$$$$$$$$$$$$$$$$$$$$.o++OoooOOOOOOOOOOOOO++++o$$$$Ooo$$$OOoo$$$$",
"$$$$$$$$$$$$$$$$$$$$..o+OOooOOOOOOOOOOoO+++++o$$$$Ooo$$$$Oooo$$$",
"$$$$$$$$$$$$$$$$$$$$$..ooooooOOOOOOOOOoooooooO$$$$ooo$$$$OOooo$$",
"$$$$$$$$$$$$$$$$$$$$$$$.....oOOOOOOOOOOOOOOOOOo$$ooo$$$$$$Oooo$$",
"$$$$$$$$$$$$$$$$$$$$$$$$$$$..oOOOOOOOOOOOOOOOOoo$ooo$$$$$$$oo$$$",
"$$$$$$$$$$$$$$$$$$$$$$$$$$....ooOOOO++++OOOOOOOoooOO$$$$$$$$$$$$",
"$$$$$$$$$$$$$$$$$$$$$$$$$..oo.OoOO++OO...+++OOOOOooO$$$$$$$$$$$$",
"$$$$$$$$$$$$$$$$$$$$$$$$$.oooOOOOO+...+O..O+++++OOoo$$$$$$$$$$$$",
"$$$$$$$$$$$$$$$$$$$$OOO$$.oOOOOOO+..@#+++......O++oo$$$$$$$$$$$$",
"$$$$$$$$$$$$$$$$$$..OOOo$.oO+OoooOO+@#+O++OO++O+++oo$$$$$$$$$$$$",
"$$$$$$$$$$$$$$$$$$.OOOOo.$oO++.oooOOOOOOO++++++++Ooo$$$$$$$$$$$$",
"$$$$$$$$$$$$$$$$$.oOOOOO..OOO++.oooOOO+OO++++++++Ooo$$$$$$$$$$$$",
"$$$$$$$$$$$$$$$$.ooOOOOOO.OOOO+..ooooOOOOOOOOOO+Oooo$$$$$$$$$$$$",
"$$$$$$$$$$$$$$$.ooOOO$OOOOOO+OO+...oooooOOOOOOO+ooo$$$$$$$$$$$$$",
"$$$$$$$$$$$$$..ooOOO$$OOOOOO.+Oooo...OOOOoooOOOOOOo$$$$$$$$$$$$$",
"$$$$$$$$$$$$.ooOOOO$$$$OOOOO..+oooOOOOOOOOOOOo.oOOOO$$$$$$$$$$$$",
"$$$$$$$$$$o.oOOOO$$$$$$oooOOO..+OoOOOOOOOOOOOOo.ooOOOO$$$$$$$$$$",
"$$.....$$OOOOOOO$$$$$$$$$oooOO..++OOOOOOOOOOOOO..ooOOOOO$$$$$$$$",
"$$OOOOOOOOOOOOO$$$$$$$$$$$$oooO..++OOoooOOOOOOo$....oOOO$$$$$$$$",
"$$$$$$OOOOOOOOO$$$$$$$$$$$$$$ooO..OOOooooOOOooo$$$..OOOO$$$$$$$$",
"$$$$$.OOOOOOOOO$$$$$$$$$$$$$$$oooooooo$$ooooo$$$.ooOOOOO$$$$$$$$",
"$....OOOOOOOOOO$$$$$$$$$$$$$$$$$$$$$$$$$$$$$$$$..oOOOOO$$$$$$$$$",
"$OOOOO.OOOO$.OO$$$$$$$$$$$$$$$$$$$$$$$$$$$$$$..ooOOOO$$$$$$$$$$$",
"$$$$$$.OOOO$$.OOOO$$$$$$$$$$$$$$$$$$$$$$$$$..ooOOOO$$$$$$$$$$$$$",
"$$$$$.O$.O$$$...O.$$$$$$$$$$$$$$$$$$$$$$...ooOOOO$$$$$$$$$$$$$$$",
"$$$$.OO$.O$$$$....$$$$$$$$$$$$$$$$$$$..ooooOOOO$$$$$$$$$$$$$$$$$",
"$$$$.O$$.O$$$$$$$$$$$$$$$$$$$$$$$$$$..oooOOOO$$$$$$$$$$$$$$$$$$$",
"$$$$...$.O$$$$$$$$$$$$$$$$$$$$$$$$$..oOOOOO$$$$$$.X$$$$$$$$$$$$$",
"$$$$$$$$.O$$$$$$$$$$$$$$$$$$$$$$$$$OOOOOO$$$$$$..O$$$O$$$$$$$$$$",
"$$$$$$..OOO$$$$$$$$$$$$$$$$$$$$$$$$OOOOO$$$$$$..O$$..O$$$$$$$$$$",
"$$$....OO.O$$$$$$$$$$$$$$$$$$$$$$$$$OOOOO$$$$$.O$..O$$$$$$$$$$$$",
"$$$OOOO$$.O$$$$$$$$$$$$$$$$$$$$$$$$$$OOOOOO$$$OOO.O$$$$$$$$$$$$$",
"$$$$$$$$.OO$$$$$$$$$$$$$$$$$$$$$$$$$$$OOOOOOOOOOOOO$$$$O$$$$$$$$",
"$$$$$$$..O$$$$$$$$$$$$$$$$$$$$$$$$$$$$$$$OOOOOOOOOOOOOOO$$$$$$$$",
"$$$$$$.OO$$$$$$$$$$$$$$$$$$$$$$$$$$$$$$$$$.OOOOOOO.OO...$$$$$$$$",
"$$$$$$$$$$$$$$$$$$$$$$$$$$$$$$$$$$$$$$$$$$.OOOOOOO$$$$$$OO$$$$$$",
"$$$$$$$$$$$$$$$$$$$$$$$$$$$$$$$$$$$$$$$$$$.O$$OOOO$$$$$OO.$$$$$$",
"$$$$$$$$$$$$$$$$$$$$$$$$$$$$$$$$$$$$$$$$$$.O$$$OOOOOOOOO.$$$$$$$",
"$$$$$$$$$$$$$$$$$$$$$$$$$$$$$$$$$$$$$$$$$$$.O$$$OOOOO...$$$$$$$$",
"$$$$$$$$$$$$$$$$$$$$$$$$$$$$$$$$$$$$$$$$$$$.O$$$$..OO$$$$$$$$$$$",
"$$$$$$$$$$$$$$$$$$$$$$$$$$$$$$$$$$$$$$$$$$$$.$$$$$$.OOOO$$$$$$$$",
"$$$$$$$$$$$$$$$$$$$$$$$$$$$$$$$$$$$$$$$$$$$$$$$$$$$$....$$$$$$$$",
"$$$$$$$$$$$$$$$$$$$$$$$$$$$$$$$$$$$$$$$$$$$$$$$$$$$$$$$$$$$$$$$$"
};
