/* XPM */
static char *result[] = {
/* columns rows colors chars-per-pixel */
"64 64 8 1 ",
"  c #3D342F",
". c #5F4E46",
"X c #846D62",
"o c #9F8273",
"O c #AB9990",
"+ c #C9CBB0",
"@ c #D8DAC7",
"# c black",
/* pixels */
"################################################################",
"#############################XXXXXXXXX##########################",
"##########################..XooooooooooXX#######################",
"#########################..XooooooooooooXXX#####################",
"########################..XooooooooXXoooooXX######XXXX##########",
"######################...XooooooooXXoooooooXX##XoooXXXX#########",
"######################.XXooooXXoooXooooooo..XXXooXXXXXX#########",
"#####################.XXoooXXXoooXXoooooo.XXXXoXXXXX############",
"####################..XXoooXooXXXoooooo...oooXXXXXX#############",
"####################..XXXooXooXooooooo... oooXXXX###############",
"####################...XXoooooooooooo...  oooXXX################",
"####################...XXooooooooo.ooooooooooXX#################",
"####################..XXXXoooooooX.oXooooooooX##################",
"####################.XXXXXooooooo..oXXoooooooX##################",
"####################..XXXoooooooX.ooOXoooooooX###XXXXX##########",
"####################..XXooXoooX..oooOOXooooooX##XXoXXX##########",
"#####################.XXooXXXX..oooooOOXoooooX##XooXXX##########",
"#####################..XXoo....oooooooOOXoooXX###XooXXXX########",
"###################.XX.XXooooooooooooooOOXXoX#####ooXXXXXX######",
"###################.XOoXXXooooooooooooooOOXXX#####ooXXooXXX#####",
"###################..OOoXXXoooooooooooooOOOOXX####ooX##ooXX#####",
"####################.XOOoXXXoooooooooooooOOOOX####oXX###ooXX####",
"####################..XOooXXooooooooooXoOOOOOX####oXX####oXXX###",
"#####################..XXXXXXoooooooooXXXXXXXo####XXX####ooXXX##",
"#######################.....XoooooooooooooooooX##XXX######oXXX##",
"###########################..XooooooooooooooooXX#XXX#######XX###",
"##########################....XXooooOOOOoooooooXXXoo############",
"#########################..XX.oXooOOooOOoooooooooXXo############",
"#########################.XXXoooooOooo....OOooOOooXX############",
"####################ooo##.XooooooO.....Oo..oOOOoOOXX############",
"##################..oooX#.XoOoXXXooO+@OOOO.....OOOXX############",
"##################.ooooX.#XoOO.XXXoooooooOOOOOOOOoXX############",
"#################.Xooooo..oooOO.XXXoooOooOOOOOOOOoXX############",
"################.XXoooooo.ooooO..XXXXooooooooooOoXXX############",
"###############.XXooo#ooooooOooO...XXXXXoooooooOXXX#############",
"#############..XXooo##oooooo.OoXXX...ooooXXXooooooX#############",
"###..#######.XXoooo####ooooo..OXXXoooooooooooX.Xoooo############",
"###o.#####X.Xoooo######XXXooo..OoXooooooooooooX.XXoooo##########",
"###o...##ooooooo#########XXXoo..OOooooooooooooo..XXooooo########",
"###oooooooooooo############XXXo..OOooXXXooooooX#....Xooo########",
"######ooooooooo##############XXo..oooXXXXoooXXX###..oooo########",
"#.....ooooooooo###############XXXXXXXX##XXXXX###.XXooooo########",
"#oooooooooooooo################################..Xooooo#########",
"######.oooo#.ooo.############################..XXoooo###########",
"######.oooo##....##########################..XXoooo#############",
"#####.oo.o##############################...XXoooo###############",
"####.oo#.o###########################..XXXXoooo#################",
"####..o#.o##########################..XXXoooo###.o##############",
"#####..#.o#########################..Xooooo#####.o##############",
"########.o#########################oooooo######..o#.o###########",
"###o.#..ooo########################ooooo######..o#..o###########",
"###o...oo.o#########################ooooo#####.o#..o############",
"###oooo##.o##########################oooooo###ooo.o###o.########",
"######...oo###########################ooooooooooooo##oo.########",
"######oooo###############################ooooooooooooo.#########",
"##########################################.ooooooo.....#########",
"##########################################.ooooooo######.#######",
"##########################################.o##oooo#####o.#######",
"##########################################.ooo#ooooooooo.#######",
"###########################################...##ooooo...########",
"#################################################..oo###########",
"###################################################.oo.#########",
"####################################################...#########",
"################################################################"
};
