/* XPM */
static char *result[] = {
/* columns rows colors chars-per-pixel */
"64 64 8 1 ",
"  c #3D342F",
". c #5F4E46",
"X c #846D62",
"o c #9F8273",
"O c #AB9990",
"+ c #C9CBB0",
"@ c #D8DAC7",
"# c black",
/* pixels */
"################################################################",
"#############################XXXXXXXXX##########################",
"##########################..XoooooooooXXX#######################",
"#########################..XooooooooooooXXX#####################",
"########################..XooooooooXXoooooXX######XXXX##########",
"######################...XooooooooXXoooooooXX##XoooXXXX#########",
"######################.XXooooXXoooXoooooo...XXXooXXXXXX#########",
"#####################.XXoooXXXoooXXoooo...XXXXoXXXXX############",
"####################..XXoooXooXXXooooo... oooXXXXXX#############",
"####################..XXXooXooXoooooo..   oooXXXX###############",
"####################...XXoooooooooooo.o   oooXXX################",
"####################...XXooooooooo.ooooooooooXX#################",
"####################..XXXXoooooooX.oXooooooooX##################",
"####################.XXXXXooooooo..oXXoooooooX##################",
"####################..XXXoooooooX.ooOXoooooooX###XXXXX##########",
"####################..XXooXoooX..oooOOXooooooX##XXoXXX##########",
"#####################.XXooXXXX..oooooOOXoooooX##XooXXX##########",
"#####################..XXoo....oooooooOOXoooXX###XooXXXX########",
"###################.XX.XXooooooooooooooOOXXoX#####ooXXXXXX######",
"###################.XOoXXXooooooooooooooOOXXX#####ooXXooXXX#####",
"###################..OOoXXXoooooooooooooOOOOXX####ooX##ooXX#####",
"####################.XOOoXXXoooooooooooooOOOOX####oXX###ooXX####",
"####################..XOooXXooooooooooXoOOOOOX####oXX####oXXX###",
"#####################..XXXXXXoooooooooXXXXXXXo####XXX####ooXXX##",
"#######################.....XoooooooooooooooooX##XXX######oXXX##",
"###########################..XooooooooooooooooXX#XXX#######XX###",
"##########################....XXooooOOOOoooooooXXXoo############",
"#########################..XX.oXooOOooooOOoooooooXXo############",
"#########################.XXXoooooO......OOOooooooXX############",
"####################ooo##.XooooooO..+@Oo..oOOOOOooXX############",
"##################..oooX#.XoOoXXXooO+@OOO......oOOXX############",
"##################.ooooX.#XoOO.XXXooooooOOooOOoOOOXX############",
"#################.Xooooo..oooOO.XXXoooOooOOOOOOOOoXX############",
"################.XXoooooo.ooooO..XXXXooooooooooOoXXX############",
"###############.XXooo#ooooooOooO...XXXXXoooooooOXXX#############",
"#############..XXooo##oooooo.OoXXX...ooooXXXooooooX#############",
"############.XXoooo####ooooo..OXXXoooooooooooX.Xoooo############",
"##...#####X.Xoooo######XXXooo..OoXooooooooooooX.XXoooo##########",
"##oo...##ooooooo#########XXXoo..OOooooooooooooo..XXooooo########",
"####ooooooooooo############XXXo..OOooXXXooooooX#....Xooo########",
"######ooooooooo##############XXo..oooXXXXoooXXX###..oooo########",
"#####.ooooooooo###############XXXXXXXX##XXXXX###.XXooooo########",
"##...oooooooooo################################..Xooooo#########",
"..ooo#.oooo#.ooo#############################..XXoooo###########",
"ooo###.oooo##.oo###########################..XXoooo#############",
"#####.o#.o###.oo########################...XXoooo###############",
"####.oo#.o####.o#####################..XXXXoooo#################",
"####.o##.o####.o####################..XXXoooo###.o##############",
"####.o##.o#########################..Xooooo#####.o##############",
"########.o#########################oooooo#####..o###.o##########",
"######..ooo########################ooooo######.o###.o###########",
"#####..oo.o#########################ooooo#####.o#..o############",
"####..o##.o##########################oooooo###ooo.o#############",
"###..o###.o###########################oooooooooooooooooo########",
"#########.o##############################ooooooooooo....########",
"########..o###############################.ooooooo..############",
"########.o################################.ooooooo##############",
"##########################################.o##oooo##############",
"#########################################..o###ooooooooooo######",
"#########################################.oo####ooooo.....######",
"########################################..o######..oo###########",
"########################################oo#########.oo##########",
"####################################################..o#########",
"######################################################.#########"
};
