/* XPM */
static char *ea9c475386084f32a6daa8035e7a42e8sd40Xk6VWIvKQt5u[] = {
/* columns rows colors chars-per-pixel */
"64 64 7 1 ",
"  c #0D2B45",
". c #203C56",
"X c #544E68",
"o c #8D697A",
"O c #D08159",
"+ c #FFAA5E",
"@ c #FFD4A3",
/* pixels */
"XXXXXXX   XXX.XXXXXXXXXXXXXXXXXXXXXXXXX   XXX.XXXXXXXXXXXXXXXXXX",
"X.....X  X......................X.....X  X......................",
".......  X....... ................. ...  X.. ...................",
"......X  X......... ...................  X.............. .......",
".......  ................. .......... .  ......... . ...........",
"......X  X......................... ..X  X......................",
"... ..X  X......................... ..X  X......................",
"..    X              .          ..    X              .          ",
"                                                                ",
"              .                               .                 ",
" XXXXXXXXXXXX .  XXXXXX XX       XXXXXXXXXXXX .  XXXXXX XX      ",
"XX..........XX. XX......X..XX.XXXX..........XX. XX......X..XX.XX",
"....... .....X  .............................X  ................",
"..... .......X  .............................X  ................",
".............X  X............ ...............X  X... ...........",
".............X  X...................... .. ..X  X..... ...... ..",
".... ........X  X........... ................X  X...............",
"..   .....   X    ...........  ...   .....   X    ......  ...  .",
"                                                                ",
"                                                                ",
"                                                                ",
"XXXXXXX.XXXXXXXXXXXXXX  ........X.......XXXXXXXXXXXXXX   XXXXXXX",
"X....................X  .XXXXXXXXXXXXXXXX............X   .......",
"...................XXo  XXXXXXXXXXXXXXXXX............X  ........",
"..X ...............XXo  .XXXXXXXXXXXXXXXXoX..........X  X.......",
"...................XXX  .XXXXXXXXXXXXXXXXXX...........  X.... ..",
"..................XXXo  XXXXXXXXXXXXXXXXX.XX.........X  ........",
"................XXXXXo  .XXXX.XXXXXXXXXXXXXX.........X  X.......",
"..  ..   . ......X...o ..oXoXXX.ooXXXX...X.X..   .   X  X  .    ",
"          .  ........  ..ooooXooooooooooXXXXX..                 ",
"                       .XXXXXXXXoooooooXX X                     ",
"       .           ..X.. XXX..  .......o                        ",
"XXXXXXX  .oooXoooooooooooO+++++@@O+++OX   XooXoooooooooXXXXXXXXX",
"X.....X  oXXXooooooooooooOO+O++++++++O+X oXXXXXXXXXXXXXX........",
".......  oXXXXooXXXooooOO+++++++@++++oOX oXXXXXXXXXXXXXX........",
"......X  oXXXX.XXXXXoooooOOOXOOOOOOOOO+X oXXXXXX.XXXXXX.........",
".......  .XXXX.o.XXXXoooOOOOOOOOOOOOOOOX XXXXXXXXXXXXX..........",
"......X  XXXXXXXXXXXooooOOOOOOOOOOoOOO+X.oXXXXXX.XXXXX..........",
"... ..X  X.XXXXXXXXXXXoooOOOOOOOOOOoOO+X ooXXXXXXX..X...........",
"..    X       .......XXoooooooooOOoooo+X  ........   .          ",
"                       ....XXXXXXXXXXXXX.....                   ",
"              . . .. ..   ...X.. XooX.XXXXXXX.X .               ",
" XXXXXXXXXXXX . XOOOOOO.OOX....X OOOOOOOOOOOO.X  XXXXXX XX      ",
"XX..........XX. OOooooooOooOOoOOoOooooooooooOOX XX.........XX.XX",
".............X  ooooooooooooooooXooooooooooooO  ................",
"... .........X  ooooXoOooooooooooooooooooooooO  ................",
".X...........X  OoooXoooooooooooooooooooXooooO  X.... X.... ....",
".............X  OooooooooooooooooooooooooooooO  X...............",
".............X  OooooooooooooooooooooooooooooO. X...............",
"..   .....   X  XXooooooXXoooXXoooXXXoooooXXXO    ......  ...  .",
"                ..XX.XXXXXXXX...XXXXXXXXXXXXX..                 ",
"                           ..... ....... ......                 ",
"                                                                ",
"XXXXXXX.XXXXXXXXXXXXXX   ooooooooooooooXoooooXXXXXXXXX   XXXXXXX",
"X....................X  .XXXXXXXoXXXXXXXXXXX.. ......X   .......",
".....................X  XXXXXXXXXXXXXXXXXX...... ....X  ........",
".........X ....... ..X  oXXXXXXXXXXXXXXXXX.......... X  X..... .",
"......................  oXXXXXXXXXXXXXXXXXX...........  X.......",
"........X............X  XXX XXXXXXXXXXXXX............X  ... ....",
".....................X  XXXXXXXXXXXX.XX..............X  X.......",
"..  ..   . .     .   X  X..X.....X..XX.. . .     .   X  X  .  XX",
"                                                                ",
"                                                                ",
"   ..X...            X..  .                                     "
};
