/* XPM */
static char *_0a2fdc6115240eac628e53dc657ce3bgTP8s1sFLzICOswV[] = {
/* columns rows colors chars-per-pixel */
"64 64 3 1 ",
"  c #0D2B45",
". c #203C56",
"X c #544E68",
/* pixels */
"XXXXXXX   XXX.XXXXXXXXXXXXXXXXXXXXXXXXX   XXX.XXXXXXXXXXXXXXXXXX",
"X.....X  X......................X.....X  X......................",
"... ...  X.. .... ................. ...  X.. .... ..............",
".......  X......... ...................  X......... ............",
"..... .  ................. .......... .  ................. .....",
"... ..X  X......................... ..X  X......................",
"... ..X  X......................... ..X  X......................",
"..    X              .          ..    X              .          ",
"                                                                ",
"              .                               .                 ",
" XXXXXXXXXXXX .  XXXXXX XX       XXXXXXXXXXXX .  XXXXXX XX      ",
"XX..........XX. XX......X..XX.XXXX..........XX. XX......X..XX.XX",
".............X  .............................X  ................",
".............X  .............................X  ................",
".............X  X............ ...............X  X............ ..",
"....... .. ..X  X...................... .. ..X  X...............",
".............X  X........... ................X  X........... ...",
"..   .....   X    ...........  ...   .....   X    ...........  .",
"                                                                ",
"                                                                ",
"                                                                ",
"XXXXXXXXXXXXXXXXXXXXX   XXXXXXXXXXXXXXX.XXXXXXXXXXXXXX  XXXXXXXX",
"...........XXXXXXXXXXX  X............................X  X.......",
".....................X  .............................X  ........",
"..... ........ ......X  X............................X  X.... ..",
".................. ...  X............ .......... .....  X.......",
".....................X  ... ............... .........X  ........",
"........... .........X  .......................... ..X  X.. ....",
"XX...................X  ...... ......................X XX.......",
"XXXXXXXX.............   ................XXXXX........  XX.......",
"        X X               ......XXXXXXXXX X             ........",
"                     X                             ..X          ",
"XXXXXXX   XXX.XXXXXXXXXXXXXXXXXXXXXXXXX   XXX.XXXXXXXXXXXXXXXXXX",
"X.....X  X......................X.....X  X......................",
"... ...  X.. .... ................. ...  X.. .... ..............",
".......  X......... ...................  X......... ............",
"..... .  ................. .......... .  ................. .....",
"... ..X  X......................... ..X  X......................",
"... ..X  X......................... ..X  X......................",
"..    X              .          ..    X              .          ",
"                                                                ",
"              .                               .                 ",
" XXXXXXXXXXXX .  XXXXXX XX       XXXXXXXXXXXX .  XXXXXX XX      ",
"XX..........XX. XX......X..XX.XXXX..........XX. XX......X..XX.XX",
".............X  .............................X  ................",
".... ........X  .............................X  ................",
".............X  X............ ...............X  X............ ..",
"....... .. ..X  X...................... .. ..X  X...............",
".............X  X........... ................X  X........... ...",
"..   .....   X    ...........  ...   .....   X    ...........  .",
"                                                                ",
"                                                                ",
"                                                                ",
"XXXXXXX.XXXXXXXXXXXXXX  XXXXXXXXXXXXXXX.XXXXXXXXXXXXXX  XXXXXXXX",
"X....................X  XXXXXXX.X....................X  X.......",
".....................X  .............................X  ........",
"........ ............X  X............................X  X.......",
"................. ...X  X...... ............... ......  X.......",
".. ..................X  .............................X  ........",
".....................X  X... ........... ........ ...X  XX.. ...",
"XX........... .......X XX............................X XX..... .",
"XXXXXX...............  XX............................  XX.......",
"          ..           X................. .              .......",
".......X           ..XXX .....  .....XXX           ..           "
};
