/* XPM */
static char *_1e89709b4294230e0553135b675a4ffATWWJofIKNB18UiP[] = {
/* columns rows colors chars-per-pixel */
"64 64 9 1 ",
"  c #2D2937",
". c #854957",
"X c #A56564",
"o c #6F6F98",
"O c #BF9181",
"+ c #8F9AB3",
"@ c #D0B7A0",
"# c #D5D5D5",
"$ c #FFFEEF",
/* pixels */
"                                                               #",
"  X @OOOOOOOOOOOOOOOOOOOOOOOOOOOOOOOOOOOOOOOOOOOOOOOOOOOOOO@ X  ",
"  XXXXXXXXXXXXXXXXXXXXXXXXXXXXXXXXXXXXXXXXXXXXXXXXXXXXXXXXXXXX  ",
"                                                                ",
"       . ..  ..  .....  ..             .....  ..                ",
"  XX ... XX. XX ..XXXXXXXX  ..  . ... ..XXXX XXXX...... ... XX  ",
"  OX ..XXXX. XX ...XX. XXX .... . .......XXXXXXXX..XXXX XX. XO  ",
"  OX ..XXXX. XX .XXXXXXXXX .XX. XXXXXX.XXXXXXXXXX.XXXXXXXX. XO  ",
"  OX ..XXXXXXXX .XXXXXXXXX .XX. XXXXXX.XXXXXXXXXX..XXXX XX. XO  ",
"  OX ..XXXX. XX .XXXXXXXXX .XX. XXXXXX.XXXXXXXXXX.XXXXXXXX. XO  ",
"  OX ..XXXXXXXX .XXXXXXXXX .XX. XXXXXX.XXXXXXXXXX.XXXXXXOX. XO  ",
"  OX ..XXXX. XX .XXXXXXXXX .XXXXXXXXXX.XXXXXXXXXX.XXXXXXXX. XO  ",
"  OX ..XXXXXXXX .XXXXOXOOX .XXXX XXXXX.XXXXXXXXXX.XXXXXXOX. XO  ",
"  OX ..XXXXXXXX .XXXXOOOOX .XXXX+ XXXX.XXXXXXXXXX.XXXXXXXX. XO  ",
"  OX   XXXXXXXX .XXXXOXXXX .XXX  . XXX.XXXXXXXXXX.XXXXXXXX. XO  ",
"  OX o+ XXXXXXX .XXXXXXOOX .XX .XX. XX.XXXXXXXXXX.XXXXXXXX. XO  ",
"  OX o+ XXXXXXX .XXXXXXXXX . .XXXXXX. .XXXXXXXXXX.XXXXXXXX. XO  ",
"  OX oo XXXXXXX .XXXXXXXXX  .XXXXXXXX..XXXXXXXXXX.XXXXXXXX. XO  ",
"  @X ..XXXXXXXX .XXXXX.                   XXXXXXX.XXXXXXXX. XO  ",
"  @X ..XXXXXXXX .XXXX.  $$$@@@@@@@@@@@@$$$ XXXXXX.XXXXXXXX. XO  ",
"  @X ..XXXXXXXX .XXXX.  @@@XX@XXX@XXX@@XX@ XOXOOX.XXXXXXXX. XO  ",
"  @X ..XXXXXXXX .XXXX.  $@X@X@X@X@X@X@X@X@ XXXXXX.XXXXXXXX. XO  ",
"  OX ..XXXXXXXX .XXXX.  @@@..@.@.@.@.@.@.@ XOXOOX.XXXXXXXX. XO  ",
"  @X ..XXXXXXXX .XXXX.  @@.@.@.@.@.@.@.@.@ XOOOOX.XXXXXXXX. XO  ",
"  OX ..XXXXXXXX .XXXX.  @@.@.@...@...@@..@ XOXOOX.XXXXXXXX. XO  ",
"  OX ..XXXXXXXX .XXXX.                     XOXXXX.XXXXXXXX. XO  ",
"  OX ..XXXXXXXX .XXXXX.                   .XXXXXX.XXXXXXXX. XO  ",
"  OX ..XXXXXXXX .XXXXXXXXX .XXXXXXXXXX.XXXXXXXXXX.XXXXXXXX. XO  ",
"  OX ..XXXXXXXX .XXXXXXXXX .XXXXXXXXXX.XXXXXXXXXX.XXXXXXXX. XO  ",
"  OX ..XXXXXXXX .XXXXXXXXX .XXXXXXXXXX.XXXXXXXXXX.XXXXXXXX. XO  ",
"  OX ..XXXXXXXX .XXXXXXXXX .XXXXXXXXXX.XXXXXXXXXX.XXXXXXXX. XO  ",
"  OX ..XXXXXXXX .XXXXXXXXX .XXXXXXXXXX.XXXXXXXXXX.XXXXXXXX. XO  ",
"  OX ..XXXXXXOX .XXXXXXXXX .XXXXXXXXXX.XXXXXXXXXX.XXXX  XX. XO  ",
"  OX ..XXXXXXOX .XXXXXXXXX .XXXXXXXXXX.XXXXXXXXXX.XXX  + X. X@  ",
"  OX ..XXXXXXXX .XXXXXXXXX .XXXXXXXXXX.XXXXXXXXXX.XXX..+ X. XO  ",
"  OX ..XXXXXXXX .XXXXXXXXX .XXXXXXXXXX.XXXXXXXXXX.XXXX.+ X. X@  ",
"  OX ..XXXXXXXX .XXXXXXXXX .XXXXXXXXXX.XXXXXXXXXX.XXXX.o X. X@  ",
"  OX ..XXXXXXXX .XXXXXXXXX .XXXXXXXXXX.XXXXXXXXXX.XXXX.+ X. X@  ",
"  OX ..XXXXXXXX .XXXXXXXXX .XXXXXXXXXX.XXXXXXXXXX.XXX  o X. XO  ",
"  OX ..XXXXXXXX .XXXXXXXXX .XXXXXXXXXX.XXXXXXXXXX.XXX.  .X. XO  ",
"  OX ..XXXXXXXX .XXXXXXXXX .XXXXXXXXXX.XXXXXXXXXX.XXXX..XX. XO  ",
"  OX ..XXXXXXXX .XXXXXXXXX .XXXXXXOOXX.XXXXXXXXXX.XXXXXXXX. XO  ",
"  OX ..XXXXXXXX .XXXXXXXXX .XXXXXXOOXX.XXXXXXXXXX.XXXX  XX. XO  ",
"  OX ..XXXXXXXX .XXXXXXXXX .XXXXOXOOXX.XXXXXXXXXX.XXXX..XX. XO  ",
"  OX ..XXXXXXXX .XXXXXXXXX .XXXXOXOOXX.XXXXXXXXXX.XXXXXXXX. XO  ",
"  OX ..XXXXXXXX .XXXXXXXXX .XXXXOXXXXX.XXXXXXXXXX.XXXXXXXX. XO  ",
"  OX   XXXXXXXX .XXXXXXXXX .XXXXXXXXXX.XXXXXXXXXX.XXXXXXXX. XO  ",
"  OX o+ XXXXXXX .XXXXXXXXX .XXXXOXXXXX.XXXXXXXXXX.XXXXXXXX. XO  ",
"  OX o+ XXXXXXX .XXXXXXXXX .XXXXXXXXXX.XXXXXXXXXX.XXXXXXXX. XO  ",
"  OX oo XXXXXXX .XXXXXXXXX .XXXXXXXXXX.XXXXXXXXXX.XXXXXXXX. XO  ",
"  OX ..XXXXXXXX .XXXXXXXXX .XXXXXXXXXX.XXXXXXXXXX.XXXXXXXX. XO  ",
"  OX ..XXXXXXXX .XXXXXXXXX .XXXXXXXXXX.XXXXXXXXXX.XXXXXXXX. XO  ",
"  OX ..XXXXXXXX .XXXXXXXXX .XXXXXXXXXX.XXXXXXXXXX.XXXXXXXX. XO  ",
"  OX ..XXXXXXXX .XXXXXXXXX .XXXXXXXXXX.XXXXXXXXXX.XXXXXXXX. XO  ",
"  OX ..XXXXXXXX .XXXXXXXXX .XXXXXXXXXX.XXXXXXXXXX.XXXXXXXX. XO  ",
"  OX ..XXXXXXXX .XXXXXXXXX .XXXXXXXXXX.XXXXXXXXXX.X. XXXXX. XO  ",
"  OX ..XXXXXXXX .XXXXXXXXX .XXXXXXXXXX.XXXXXXXXXX.XXXXXXXX. XO  ",
"  OX ..XXXXXXXX .XXXXXXXXX .XXXX. XXXX.XXXXXXXXXX.X. XXXXX. XO  ",
"  XX ..X.XXXXXX .XXXXXXXXX .XXXXXXXXXX.XXXXXXXXXX.XXXXXXXX. XX  ",
"  XX ..XXXXXXXX .XX.XXXXXX .XXXX. XXXX...XXX .XXX.X. XX. X. XX  ",
"  XX ..X.XXXXXX ...... ... ...XX. XXXX..XXXXXXXXX.X. XXXXX. XX  ",
"   X ..........            ...... .... ... .  .. ... ... .. X   ",
"      .. ......             .....  ..             ..  .  .      ",
"                                                                "
};
