/* XPM */
static char *result[] = {
/* columns rows colors chars-per-pixel */
"64 64 14 1 ",
"  c #191612",
". c #312C24",
"X c #3F3B39",
"o c #6C3229",
"O c #7C736D",
"+ c #A72411",
"@ c #943B2E",
"# c #C3321D",
"$ c #9B928B",
"% c #B89580",
"& c #BBB1AA",
"* c #D7B39E",
"= c #E4DFDC",
"- c black",
/* pixels */
"----------------------------------------------------------------",
"-----------------------     ------------------------------------",
"----------------------        ----------------------------------",
"---------------------- .       ---------------------------------",
"---------------------  . .     ---------------------------------",
"---------------------  ...     ---------------------------------",
"--------------------- .... .    --------------------------------",
"--------------------  . . ....  --------------------------------",
"-------------------- .. . . ... --------------------------------",
"-------------------- .    . . . .-------------------------------",
"-------------------- . *  * .   .-------------------------------",
"-------------------- . *  * .   .-------------------------------",
"-------------------- % *  * .   .-------------------------------",
"-------------------- % * ***.   .-------------------------------",
"--------------------   * **%    .-------------------------------",
"-------------------%  %* *%% * X. ------------------------------",
"------------------%%  %%%%%* $ .. ------------------------------",
"------------------%*O $&***  $$. %------------------------------",
"------------------%*O $&***  $$.X%%-----------------------------",
"------------------%*O $&&&& &$$.**%-----------------------------",
"------------------%*O$$$&&& $$OO**%-----------------------------",
"------------------%%OO$$$&$$$$O***%-----------------------------",
"-------------------%*OO$$OO$$OO***%-----------------------------",
"-------------------%**OOOOOOOO***%%-----------------------------",
"-------------------%***O&&$&&O***%------------------------------",
"-------------------%%**O$&&&OO**%%------------------------------",
"--------------------%**O$&&&O***%O------------------------------",
"--------------------%%*OO&&OO**%OO------------------------------",
"--------------------X%**O&OO**%%OOX-----------------------------",
"--------------------X%%*O&O**%%OOOX-----------------------------",
"-------------------XX=%**O**%%OOOOXX----------------------------",
"-------------------X==%%***%%OOOO&=X----------------------------",
"------------------XX&==%%*%%OOO&&&=XX---------------------------",
"-----------------XX$&===%*%OO==& &==X---------------------------",
"----------------XX&&=X===%OO=== =&&==X--------------------------",
"--------------- &&&==XX===O====&=&&&=XX-------------------------",
"-------------- $&====&X===O==X=&==&=&=X-------------------------",
"-------------X$&===$=&$=&==$XX=&==$ &=XX------------------------",
"-------------X$&&==$&=$=&&&XX&=&&=$$X&=XX-----------------------",
"------------X$$&&=$$&=$==&&X=$$$&==$XX==XX----------------------",
"------------X$&&==$$&====&&$=&&$&==&$XX&=XX---------------------",
"-----------XX&$&=$$$==$=&&&$$=&$$==&&$XX&=XX--------------------",
"-----------X$&$&$$$$$=$=&&&&$=&&$$==&$$&&&=X--------------------",
"-----------X&&$$$=$$$=$&&=&&$$=$&$$=&&$&=&&XX-------------------",
"-----------X&$$$===$=$$&=$$&$$$$&&$$=&$$&&&=XX------------------",
"-----------X&$&$@XX$$=$=$$$===$$=&&$$&=$&$&&=X------------------",
"-----------X& @=@XX=$=@@o ==XX=$=@&&$$&$&$&&=XX-----------------",
"-----------X&  +@XXX=@@oo  @XX==@@=$=$&$=$$&&=X-----------------",
"-----------Xo -+@X-X=@ o-- @X- =@ =$=$=$=$$&&=X-----------------",
"-----------Xo---+X-- + ---o#X- @@  $=@===$$&&=X-----------------",
"-----------oo---oX-- + ---o#X- #o- =@@===$$&&=X-----------------",
"-----------o-----X---o ---ooo- #o--X#XX==@@$&=X-----------------",
"-----------o-----o---o ---oo-- #o--X#XX@==@$&=X-----------------",
"------------o---------o----o--- o--XXoo@@XX$&=X-----------------",
"------------o---------o-----o---o--XXo- #XX$&=X-----------------",
"----------------------------o---o---Xo- #XX$&@X-----------------",
"------------------------------------X--  oo$#@X-----------------",
"------------------------------------XX-- o ##@X-----------------",
"-------------------------------------X-- o # @X-----------------",
"-------------------------------------X--oo @ #X-----------------",
"-----------------------------------------o-  oX-----------------",
"-----------------------------------------o-- oX-----------------",
"-------------------------------------------- -oX----------------",
"----------------------------------------------------------------"
};
