/* XPM */
static char *bee91266b1624c8191dad940ec5bef16NREFEvciOLXQRCzm[] = {
/* columns rows colors chars-per-pixel */
"64 64 6 1 ",
"  c None",
". c black",
"X c #361706",
"o c #673418",
"O c #814E31",
"+ c #FFFBF9",
/* pixels */
"                                                                ",
"                                                                ",
"                                                                ",
"                                                                ",
"                                                                ",
"                                                                ",
"                                                                ",
"                                                                ",
"                                                                ",
"                                                                ",
"                                                                ",
"                                                                ",
"                                                                ",
"                                                                ",
"                                                                ",
"                                                                ",
"                                                                ",
"                                                                ",
"                                                                ",
"                                                                ",
"                                                                ",
"                                                                ",
"                                                                ",
"                                                                ",
"                                                                ",
"                                                                ",
"                                                                ",
"                                                                ",
"                                                                ",
"                                                                ",
"                                                                ",
"                                                                ",
"                                                                ",
"                                                                ",
"                                                                ",
"                                                                ",
"                                                                ",
"                                                                ",
"                               .                                ",
"                              .O. .....                         ",
"                              .O..OOOOO.                        ",
"                              ..OOOOOOO.                        ",
"                             .OOOOOOOOO.                        ",
"                           ..OOOOOOOoooo.                       ",
"                         ..O+++OOOOOoooo.                       ",
"                        .OOO+OO++ooooooo.                       ",
"                       .OOOO+OOOo++ooooo.                       ",
"                      .OOOOO+O+oooo+oooo.                       ",
"                     .OOOOO+Oo+oooo+oooo.                       ",
"                     .OOOOO+oooooooo++oX.                       ",
"                     .OOOoo+ooo+oo++ooXX.                       ",
"                     .OOooo+oooo++oXXXXX.                       ",
"                      .Ooo+ooo++ooXXXXXX.                       ",
"                      .ooo++++oXXXXX....                        ",
"                      .oooooXXXXX...                            ",
"                      .oooXXXX...                               ",
"                       .XXX....X.                               ",
"                        ...   .X.                               ",
"                              .X.                               ",
"                              .X.                               ",
"                              .X.                               ",
"                              .X.                               ",
"                              .X.                               ",
"                              .X.                               "
};
