/* XPM */
static char *result[] = {
/* columns rows colors chars-per-pixel */
"64 64 15 1 ",
"  c #010101",
". c #292120",
"X c #443634",
"o c #5F504E",
"O c #927977",
"+ c #94807E",
"@ c #A28683",
"# c #A48E8B",
"$ c #A38F8D",
"% c #B39D9B",
"& c #B69D9A",
"* c #B6A09E",
"= c #B4A29F",
"- c white",
"; c black",
/* pixels */
";;;;;;;;;;;;;;;;;;;;;XXXXXXXXXXX;;;;;;;;;;;;;;;;;;;;;;;;;;;;;;;;",
";;;;;;;;;;;;;;;;;;XXXX&&&&&&&&&XX;;;;;;;;;;;; ;;;;;;;;;;;;;;;;;;",
";;;;;;;;;;;;;;;;XXXXX&&&&&&&&&&XXX;;;;;;;;;;  ;;;;;;;;;;;;;;;;;;",
";;;;;;;;;;;;;;;XXXXX++&&&&&&&&&&&XXX;    ;;  ;;;;;;;;;;;;;;;;;;;",
";;;;;;;;;;;;;;oXoOO+++*&&&&&&&&&&&&XX ;;    ;;;;;;;;;;;;;;;;;;;;",
";;;;;;;;;;;     OOO+++**&&&&&&&&****XXX;;;;;;;;;;;;;;;;;;;;;;;;;",
";;;;;;;;;;  ;oOOOOO++**&+#####&&**###*XX;;;;;;;;;;;;;;;;;;;;;;;;",
";;;;;;;;;  ;oooO@OO++=%&##ooo##&*##oo**XX ;;;;;;;;;;;;;;;;;;;;;;",
";;;;;;;;;;;ooOOOOOO@+**&&#ooooo#&&#oooo**X  ;;;;;;; ;;;;;;;;;;;;",
";;;;;;;;;;;oO   OOO++*&&#ooX.oo&&##o..Xo*XX  ;;;;;  ;;;;;;;;;;;;",
";;;;;;;;;;;    OOOO@+%&&#ooX.Xo&&#oX..Xo**X;      ;;;;;;;;;;;;;;",
";;;;;;;;;;  OOOOOOO@=*&&#oX--.o&##o--.Xo*XX;;;;;;;;;;;;;;;;;;;;;",
";;;;;;;    XOOOOOOO@@%&&#o.- .o&#oX- Xo&*X;;;;;;;;;;;;;;;;;;;;;;",
";;;;;;  ;;;XOOOOOOO@==&&#X.--Xo##oX--oo&*X;;;;;;;;;;;;;;;;;;;;;;",
";;;;;; ;;;;XOOOO@OO@$=&&+X.X.Xo#oX..oo***X;;;;;;;;;;;;;;;;;;;;;;",
";;;;;; ;;;;oOOOOOOO@==&&&#X..Xo#o..Xo****X    ;;;;;;;;;;;;;;;;;;",
";;;;;;;;;;;XOOOOO@@$=&+&&#X..o&#o.Xo*****X;;; ;;;;;;;;;;;;;;;;;;",
";;;;;;;;;;;XOOOOO@OO=&&&&#o.Xo&#oXXo*****X;;;  ;;;;;;;;;;;;;;;;;",
";;;;;;;;;   ooOOOO@@@&&&&&#XXo&#oXo*&****X;;;;    ;;;;;;;;;;;;;;",
";;;;;;;;  ;;ooOOO@@@@+&&&&+XXo##ooo******X;;;;;;;   ;;;;;;;;;;;;",
";;;;;;;   ;;oooOO@OO@@++&&&#oo###oo*****XX;;;;;;;;;;;;;;;;;;;;;;",
";;;;;;; ;;;;;XoOOO@@@@@++&&##oo##oo****&X;;;;;;;;;;;;;;;;;;;;;;;",
";;;;;;; ;;;;;XXoOO@OOO@@+&&&##o&##oo**&XX;;;;;;;;;;;;;;;;;;;;;;;",
";;;;;;; ;;;;;;XoOOO@@@@@@+&&&##o&##o**&X;;;;;;;;;;;;;;;;;;;;;;;;",
";;;;;;  ;;;;;;XXoOO@@@@+@++&&&##&&#***XX;;;;;;;;;;;;;;;;;;;;;;;;",
";;;;;; ;;;;;;;;XXOO@@@O@@+&+&&&&&****&X;;;;;;;;;;;;;;;;;;;;;;;;;",
";;;;;; ;;;;;;;;;XoOOO@O@@@+&&&&&&****&X;;;;;;;;;;;;;;;;;;;;;;;;;",
";;;;;;;;;;;;;;;;XXoOOOOO@@@&&&&&&****XX;;;;;;;;;;;;;;;;;;;;;;;;;",
";;;;;;;;;;;;;;;;;XX@@OOO@O@@&&&&*****X;;;;;;;;;;;;;;;;;;;;;;;;;;",
";;;;;;;;;;;;;;;;;;XXXOOO@O@+&+&&*****X;;;;;;;;;;;;;;;;;;;;;;;;;;",
";;;;;;;;;;;;;;;;;;;XXXO@@@@&+&&****&XX;;;;;;;;;;;;;;;;;;;;;;;;;;",
";;;;;;;;;;;;;;;;;;;;;XoOO@@&&+&&***&X;;;;;;;;;;;;;;;;;;;;;;;;;;;",
";;;;;;;;;;;;;;;;;;;;XXXoO@@@+&*&***&X;;;;;;;;;;;;;;;;;;;;;;;;;;;",
";;;;;;;;;;;;;;;;;;;;;XXoO@@@+&*****X;;;;;;;;;;;;;;;;;;;;;;;;;;;;",
";;;;;;;;;;;;;;;;;;;;;XXXoO@@@&*****X;;;;;;;;;;;;;;;;;;;;;;;;;;;;",
";;;;;;;;;;;;;;;;;;;;;;XooO@@@&&****X;;;;;;;;;;;;;;;;;;;;;;;;;;;;",
";;;;;;;;;;;;;;;;;;;;;;XX@@@@&&+****X;;;;;;;;;;;;;;;;;;;;;;;;;;;;",
";;;;;;;;;;;;;;;;;;;;;;;X@OO@@&&****X;;;;;;;;;;;;;;;;;;;;;;;;;;;;",
";;;;;;;;;;;;;;;;;;;;;;;XO@@@@&&&***X;;;;;;;;;;;;;;;;;;;;;;;;;;;;",
";;;;;;;;;;;;;;;;;;;;;;;XX@@@@&&&&**X;;;;;;;;;;;;;;;;;;;;;;;;;;;;",
";;;;;;;;;;;;;;;;;;;;;;;;X@@@&&&&&**X;;;;;;;;;;;;;;;;;;;;;;;;;;;;",
";;;;;;;;;;;;;;;;;;;;;;;;X@O@@&&&&**X;;;;;;;;;;;;;;;;;;;;;;;;;;;;",
";;;;;;;;;;;;;;;;;;;;;;;;X@@@@&&&&**XX;;;;;;;;;;;;;;;;;;;;;;;;;;;",
";;;;;;;;;;;;;;;;;;;;;;;;X@@@@&&&&***o;;;;;;;;;;;;;;;;;;;;;;;;;;;",
";;;;;;;;;;;;;;;;;;;;;;XXoO@@@&&&&&**o;;;;;;;;;;;;;;;;;;;;;;;;;;;",
";;;;;;;;;;;;;;;;;;;;;oXo@@@@@&&&&**oo;;;;;;;;;;;;;;;;;;;;;;;;;;;",
";;;;;;;;;;;XXXXoooooXXOOOOO@@&&&&&**oo;;;;;;;;;;;;;;;;;;;;;;;;;;",
";;;;;;;;;XXXOOO@@@@@OOOOOO@XXX&&&&***oo;;;;;;;;;;;;;;;;;;;;;;;;;",
";;;;;;;XXXO@@@@OO@@O@@O@@XXXooo&&&&***oooo;;;;;;;;;;;;;;;;;;;;;;",
";;;XXXXXX@@O@OO&&&&&@@@@XX@OOOoo&&&***@@@oo;;;;;;;;;;;;;;;;;;;;;",
";;XX@@XX@@@&&&&&&&&&&&&&&&&&&&Oo&&&&**@@@@@o;;;;;;;;;;;;;;;;;;;;",
";XX@@@X@@@&&&&&&&&&&&&&&&&&&&&&&&&&&&&@@ooooooooooooooo;;;;;;;;;",
";X@@@@O@@&&&&&&&&&&&&&&&&&&&&&&&&&&&&&&&&&XXXXXXXXXX@@ooooooo;;;",
"XX@@@@&@@&&&&&&&&&&&&&&&&&&&&&&&&&oooo&&&&&&X@@@@@@@@@&&&&&&ooo;",
"X&&&&&&&&&&&&O&XX&&&&&&&&&&&&&oooXXXOooo&&&&&&&&&&&&&XX&&&&&&&&o",
"X&&&&&&&&&&&@@OoXXXXXX&&&&&&ooXXXXO@@@Oooo&&&&&&&&XXXoXXX&&&&&&&",
"X&&&&&&&&&&&@@OOooooooo&&&&&XXX@@@@@@@@@Oo&&&&&&XXXoo&&&&&&&&&&o",
"X&&&&&&&&&&&@@@@OOOOOOoo&&&O&&&&&&&&&&@@@@o&&&&XXXo&&&&&&&&&&&oX",
";XX&&&&&&&&&&&ooo@@@@@@@oOOO&&&&&&&&&&&@@@&&&&&o&&&&&&&&&&&OooXX",
";;XXXXXXXXooooo;ooo&&&@@@@@@&&&&&&&&&&&&&&&&&&&&&&&&&&@@@@OooX;;",
";;;;;;;;;;;;;;;;;ooO&&&@@@&&&&&&&&&&@@@@@@@@@&&&&&&@@@@@@Ooo;;;;",
";;;;;;;;;;;;;;;;;;;oooO&&&&&&&&&&&&@@OOOooOO@&&&@@@@@@@@ooo;;;;;",
";;;;;;;;;;;;;;;;;;;;;ooOOOO&&&@@@@@OOoooooooo@@OOOOOoooo;;;;;;;;",
";;;;;;;;;;;;;;;;;;;;;;;ooooooooooooooo;;;;;;;;ooooooo;;;;;;;;;;;"
};
