/* XPM */
static char *result[] = {
/* columns rows colors chars-per-pixel */
"64 64 15 1 ",
"  c #010101",
". c #292120",
"X c #443634",
"o c #5F504E",
"O c #927977",
"+ c #94807E",
"@ c #A28683",
"# c #A48E8B",
"$ c #A38F8D",
"% c #B39D9B",
"& c #B69D9A",
"* c #B6A09E",
"= c #B4A29F",
"- c white",
"; c black",
/* pixels */
";;;;;;;;;;;;;;;;;;;;;XXXXXXXXXXXX;;;;;;;;;;;;;;;;;;;;;;;;;;;;;;;",
";;;;;;;;;;;;;;;;;;XXXX&&&&&&&&&XXXXX;;;;;;;;;;;;;;;;;;;;;;;;;;;;",
";;;;;;;;;;;;;;;;XXXXX&&&&&&&&&&&&&&XXX;;;;;;;;;;;;;;;;;;;;;;;;;;",
";;;;;;;;;;;;;;;XXXXX++&&&&&&&&&&&&&&&XXX ;;;;;  ;;;;;;;;;;;;;;;;",
";;;;;;;;;;;;;;oXoOO+++*&&&&&&&&&&&&&&&&XX  ;;; ;;;;;;;;;;;;;;;;;",
";;;;;;;;;;;     OOO+++**&&&&&&&&&&&&&&&&&X;    ;;;;;;;;;;;;;;;;;",
";;;;;;;;;;  ;oOOOOO++**&+#####&&****##&&&X;;;;;;;;;;;;;;;;;;;;;;",
";;;;;;;;;  ;ooooO@OO++=%&##ooo#&&**#oo*&&XX;;;;;;;;;;;;;;;;;;;;;",
";;;;;;;;;;;ooOOOOOOO@+**&&#ooooo#&&#oooo&*X  ;;;;;;;;;;;;;;;;;;;",
";;;;;;;;;;;oO    OOO++*&&#ooX.oo&&##o..Xo*XX  ;;;;;;;;;;;;;;;;;;",
";;;;;;;;        OOOO@+%&&#ooX.Xo&&#oX..Xo*XX;  ;;;;;;;;;;;;;;;;;",
";;;;;;  ;;; OOOOOOOO@=*&&#oX--.o&##o--.Xo*XX;;;  ;;;;;;;;;;;;;;;",
";;;;;;;;;;;XOOOOOOOO@@%&&#o.- .o&#oX- Xo&*X;;;;;  ;;;;;;;;;;;;;;",
";;;;;;;;;;;XOOOOOOOO@==&&#X.--Xo##oX--oo&*X;;;;;;   ;;;;;;;;;;;;",
";;;;;;;;;;;XOOOOO@OO@$=&&+X.X.Xo#oX..oo***X;;;;;;;; ;;;;;;;;;;;;",
";;;;;;;;;;;oOOOOOOOO@==&&&#X..Xo#o..Xo****X    ;;;;;;;;;;;;;;;;;",
";;;;;;;;;;;XOOOOOO@@$=&+&&#X..o&#o.Xo*****X;;;  ;;;;;;;;;;;;;;;;",
";;;;;;;;;;;XOOOOOO@OO=&&&&#o.Xo&#oXXo*****X;;;; ;;;;;;;;;;;;;;;;",
";;;;;;;     ooOOOOO@@@&&&&&#XXo&#oXo*&****X;;;  ;;;;;;;;;;;;;;;;",
";;;;;  ;;;;;ooOOO@@@@@+&&&&+XXo##ooo******X;;  ;;;;;;;;;;;;;;;;;",
";;;;  ;;;;;;oooOO@OOO@@++&&&#oo###oo*****XX;;;   ;;;;;;;;;;;;;;;",
";;;;;;;;;;;;;XoOOO@@@@@@++&&##oo##oo****&X;;;;;;;;;;;;;;;;;;;;;;",
";;;;;;;;;;;;;XXoOO@OOOO@@+&&&##o&##oo**&XX;;;;;;;;;;;;;;;;;;;;;;",
";;;;;;;;;;;;;;XoOOO@@@@@@@+&&&##o&##o**&X;;;;;;;;;;;;;;;;;;;;;;;",
";;;;;;;;;;;;;;XXoOO@@@@++@++&&&##&&#***XX;;;;;;;;;;;;;;;;;;;;;;;",
";;;;;;;;;;;;;;;XXOO@@@O@@@+&+&&&&&****&X;;;;;;;;;;;;;;;;;;;;;;;;",
";;;;;;;;;;;;;;;;XoOOO@O@@@@+&&&&&&****&X;;;;;;;;;;;;;;;;;;;;;;;;",
";;;;;;;;;;;;;;;;XXoOOOOO@@@@&&&&&&****XX;;;;;;;;;;;;;;;;;;;;;;;;",
";;;;;;;;;;;;;;;;;XX@@OOO@O@@@&&&&*****X;;;;;;;;;;;;;;;;;;;;;;;;;",
";;;;;;;;;;;;;;;;;;XXXOOO@O@+&&+&&*****X;;;;;;;;;;;;;;;;;;;;;;;;;",
";;;;;;;;;;;;;;;;;;;XXXO@@@@&+&&&****&XX;;;;;;;;;;;;;;;;;;;;;;;;;",
";;;;;;;;;;;;;;;;;;;;;XoOO@@&&+&&&***&X;;;;;;;;;;;;;;;;;;;;;;;;;;",
";;;;;;;;;;;;;;;;;;;;XXXoO@@@+&*&&***&X;;;;;;;;;;;;;;;;;;;;;;;;;;",
";;;;;;;;;;;;;;;;;;;;;XXoO@@@+&******X;;;;;;;;;;;;;;;;;;;;;;;;;;;",
";;;;;;;;;;;;;;;;;;;;;XXXoO@@@&*****X;;;;;;;;;;;;;;;;;;;;;;;;;;;;",
";;;;;;;;;;;;;;;;;;;;;;XooO@@@&&****X;;;;;;;;;;;;;;;;;;;;;;;;;;;;",
";;;;;;;;;;;;;;;;;;;;;;XX@@@@&&+****X;;;;;;;;;;;;;;;;;;;;;;;;;;;;",
";;;;;;;;;;;;;;;;;;;;;;;X@OO@@&&****X;;;;;;;;;;;;;;;;;;;;;;;;;;;;",
";;;;;;;;;;;;;;;;;;;;;;;XO@@@@&&&***X;;;;;;;;;;;;;;;;;;;;;;;;;;;;",
";;;;;;;;;;;;;;;;;;;;;;;XX@@@@&&&&**X;;;;;;;;;;;;;;;;;;;;;;;;;;;;",
";;;;;;;;;;;;;;;;;;;;;;;;X@@@&&&&&**X;;;;;;;;;;;;;;;;;;;;;;;;;;;;",
";;;;;;;;;;;;;;;;;;;;;;;;X@O@@&&&&**X;;;;;;;;;;;;;;;;;;;;;;;;;;;;",
";;;;;;;;;;;;;;;;;;;;;;;;X@@@@&&&&**X;;;;;;;;;;;;;;;;;;;;;;;;;;;;",
";;;;;;;;;;;;;;;;;;;;;;;;X@@@@&&&&**XX;;;;;;;;;;;;;;;;;;;;;;;;;;;",
";;;;;;;;;;;;;;;;;;;;;;XXoO@@@&&&&&**o;;;;;;;;;;;;;;;;;;;;;;;;;;;",
";;;;;;;;;;;;;;;;;;;;;oXo@@@@@&&&&***o;;;;;;;;;;;;;;;;;;;;;;;;;;;",
";;;;;;;;;;;XXXXoooooXXOOOOO@@&&&&&*oo;;;;;;;;;;;;;;;;;;;;;;;;;;;",
";;;;;;;;;XXXOOO@@@@@OOOOOO@XXX&&&&**oo;;;;;;;;;;;;;;;;;;;;;;;;;;",
";;;;;;;XXXO@@@@OO@@O@@O@@XXXooo&&&***oo;;;;;;;;;;;;;;;;;;;;;;;;;",
";;;XXXXXX@@O@OO&&&&&@@@@XX@OOOoo&&&***oooo;;;;;;;;;;;;;;;;;;;;;;",
";;XX@@XX@@@&&&&&&&&&&&&&&&&&&&Oo&&&***@@@oo;;;;;;;;;;;;;;;;;;;;;",
";XX@@@X@@@&&&&&&&&&&&&&&&&&&&&&&&&&&**@@@@@o;;;;;;;;;;;;;;;;;;;;",
";X@@@@O@@&&&&&&&&&&&&&&&&&&&&&&&&&&&&&@@oooooooooooooooo;;;;;;;;",
"XX@@@@&@@&&&&&&&&&&&&&&&&&&&&&&&&&&&&&&&&&XXXXXXXXXXX@@ooooooo;;",
"X&&&&&&&&&&&&O&XX&&&&&&&&&&&&&&&&&oooo&&&&&&&X@@@@@@@@@&&&&&&o;;",
"X&&&&&&&&&&&@@OoXXXXXX&&&&&&&&oooXXXOooo&&&&&&&&&&&&&&XX&&&&&ooX",
"X&&&&&&&&&&&@@OOooooooo&&&&&ooXXXXO@@@Ooooo&&&&&&&&XXXoX&&&&&&&X",
"X&&&&&&&&&&&@@@@OOOOOOoo&&&&XXX@@@@@@@@@OOo&&&&&&XXXoo&XXX&&&&&X",
";XX&&&&&&&&&&&ooo@@@@@@@oO&O&&&&&&&&&&@@@@@o&&&&XXXo&&&&&&&&&&&X",
";;XXXXXXXXooooo;ooo&&&@@@@OO&&&&&&&&&&&@@@@&&&&&o&&&&&&&&&&&&&&o",
";;;;;;;;;;;;;;;;;ooO&&&@@@@@&&&&&&&&&&&&&&&&&&&&&&&&&&&&&&&&OooX",
";;;;;;;;;;;;;;;;;;;oooO&&&&&&&&&&&&&@@@@@@@@@@&&&&&&@@&@@@@OooX;",
";;;;;;;;;;;;;;;;;;;;;ooOOOO&&&&&&&&@@@OOOooOO@&&&@@@@@@@@@Ooo;;;",
";;;;;;;;;;;;;;;;;;;;;;;oooo&&&@@@@@OOOoooooooo@@OOOOO@@@@ooo;;;;"
};
