/* XPM */
static char *result[] = {
/* columns rows colors chars-per-pixel */
"64 64 15 1 ",
"  c #010101",
". c #292120",
"X c #443634",
"o c #5F504E",
"O c #927977",
"+ c #94807E",
"@ c #A28683",
"# c #A48E8B",
"$ c #A38F8D",
"% c #B39D9B",
"& c #B69D9A",
"* c #B6A09E",
"= c #B4A29F",
"- c white",
"; c black",
/* pixels */
";;;;;;;;;;;;;;;;;;;XXXXXXXXXXXXXXXXX;;;;;;;;;;;;;;;;;;;;;;;;;;;;",
";;;;;;;;;;;;;;;;;XXX++++&&&&&&&&&&XXX;    ;;;;;  ;;;;;;;;;;;;;;;",
";;;;;;;;;;;;;;;;XXO+++*++&&&&&++&&&&XX ;;   ;;; ;;;;;;;;;;;;;;;;",
";;;;;;;;;;;;;;;XXOOO++**&&&&&&&&&****XXXoo;;    ;;;;;;;;;;;;;;;;",
";;;;;;;;;;;;;;oXoOOO*+**&+####&&******##*oo;;;;;;;;;;;;;;;;;;;;;",
";;;;;;;;;;;;     O*OOO++=%&##ooo#&****##*ooo;;;;;;;;;;;;;;;;;;;;",
";;;;;;;;;;;  ;oOOOO**O++=%&##ooo#&&&**oo**XX  ;;;;;;;;;;;;;;;;;;",
";;;;;;;;;;  ;;ooooO**O@+**&&#ooooo##&&#ooo**X   ;;;;;;;;;;;;;;;;",
";;;;;;;;;;;;oooOOOOOO*++*&&#ooX.oo&&&##o.Xo*XX   ;;;;;;;;;;;;;;;",
";;;;;;;;;;;;ooO    OO**+%&&#ooX.Xo&&&#oX.Xo*XX;  ;;;;;;;;;;;;;;;",
";;;;;;   ;;;      OOOO@=*&&#oX--.o&&##oX..X**X;;; ;;;;;;;;;;;;;;",
";;;;;;;;      OOOOOOOO@**&&#o.- .o&&##o--.X*XX;;;   ;;;;;;;;;;;;",
";;;;;;;;;;;;XXOOOOOOOO@@**&#o.- .o&&#oX- Xo&*X;;;;;  ;;;;;;;;;;;",
";;;;;;;;;;;XOOOOOOOOOO@==**#o.- .o&&#oX- Xo&*X;;;;;;   ;;;;;;;;;",
";;;;;;;;;;;XOOOOOOO@OO@$=**#X.--Xo###oX--oo&*X;;;;;;;;;;;;;;;;;;",
";;;;;;;;;;;oOOOOOOOOOO@==**+X.X.Xo##oX..oo***X;;;;;;;;;;;;;;;;;;",
";;;;;;;;;;;XOOOOOOOO@@$=&+**#X..Xo##o..Xo****X    ;;;;;;;;;;;;;;",
";;;;;;;;;;;XOOOOOOOO@OO=&&**#X..o&##o.Xo*****X;;;  ;;;;;;;;;;;;;",
";;;;;;;;;   oooOOOOOO@@@&&&**o.Xo&##oXXo*****X;;;; ;;;;;;;;;;;;;",
";;;;;;;;; ;;oooOOOO@@@@@+&&&*#XXo&##oXo*&****X;;;  ;;;;;;;;;;;;;",
";;;;;;;;;  ;ooooOO@@OOO@@++&*&XXo###ooo******X;;  ;;;;;;;;;;;;;;",
";;;;;;;;;; ;;;XoOOO@@@@@@@++***oo####oo*****XX;;; ;;;;;;;;;;;;;;",
";;;;;;;;;; ;;;XXoOO@OOOOO@@+&&*oo####oo*****XX;;;   ;;;;;;;;;;;;",
";;;;;      ;;;;XoOOO@@@@@@@@&&&*oo###oo****&X;;;;;;;;;;;;;;;;;;;",
";;;;;;;;;;;;;;;XXoOO@@@@@++@+&&&#o&&##oo**&XX;;;;;;;;;;;;;;;;;;;",
";;;;;;;;;;;;;;;;XXOO@@@@O@@@++&&&#oo&##o**&X;;;;;;;;;;;;;;;;;;;;",
";;;;;;;;;;;;;;;;;XoOOO@OO@@@+&+&&&&&&&#***XX;;;;;;;;;;;;;;;;;;;;",
";;;;;;;;;;;;;;;;;XXoOOOOOO@@@+&&&&&*&****&X;;;;;;;;;;;;;;;;;;;;;",
";;;;;;;;;;;;;;;;;;XX@@OOO@@O@@&&&&&******&X;;;;;;;;;;;;;;;;;;;;;",
";;;;;;;;;;;;;;;;;;;XXXOOO@OO@@@&&&&******XX;;;;;;;;;;;;;;;;;;;;;",
";;;;;;;;;;;;;;;;;;;;XXXO@@@@@+&&+&&*****X;;;;;;;;;;;;;;;;;;;;;;;",
";;;;;;;;;;;;;;;;;;;;;;XoOO@@@&+&&&****&XX;;;;;;;;;;;;;;;;;;;;;;;",
";;;;;;;;;;;;;;;;;;;;;XXXoO@@@&&+&&&***&X;;;;;;;;;;;;;;;;;;;;;;;;",
";;;;;;;;;;;;;;;;;;;;;;XXoO@@@@+&*&&***&X;;;;;;;;;;;;;;;;;;;;;;;;",
";;;;;;;;;;;;;;;;;;;;;;XXXoO@@@&&******X;;;;;;;;;;;;;;;;;;;;;;;;;",
";;;;;;;;;;;;;;;;;;;;;;;XooO@@@&******X;;;;;;;;;;;;;;;;;;;;;;;;;;",
";;;;;;;;;;;;;;;;;;;;;;;XX@@@@&&+*****X;;;;;;;;;;;;;;;;;;;;;;;;;;",
";;;;;;;;;;;;;;;;;;;;;;;;X@OO@@&&*****X;;;;;;;;;;;;;;;;;;;;;;;;;;",
";;;;;;;;;;;;;;;;;;;;;;;;XO@@@@&&&***X;;;;;;;;;;;;;;;;;;;;;;;;;;;",
";;;;;;;;;;;;;;;;;;;;;;;;XX@@@@&&&&**X;;;;;;;;;;;;;;;;;;;;;;;;;;;",
";;;;;;;;;;;;;;;;;;;;;;;;;X@@@&&&&&**X;;;;;;;;;;;;;;;;;;;;;;;;;;;",
";;;;;;;;;;;;;;;;;;;;;;;;;X@O@@&&&&**X;;;;;;;;;;;;;;;;;;;;;;;;;;;",
";;;;;;;;;;;;;;;;;;;;;;;;;X@@@@&&&&**XX;;;;;;;;;;;;;;;;;;;;;;;;;;",
";;;;;;;;;;;;;;;;;;;;;;;;;X@@@@&&&&***o;;;;;;;;;;;;;;;;;;;;;;;;;;",
";;;;;;;;;;;;;;;;;;;;;oXXooO@@@&&&&&**o;;;;;;;;;;;;;;;;;;;;;;;;;;",
";;;;;;;;;;;XXXXoooooXXOO@@@@@@&&&&**oo;;;;;;;;;;;;;;;;;;;;;;;;;;",
";;;;;;;;;XXXOOO@@@@@OOOOOOOO@@&&&&&**oo;;;;;;;;;;;;;;;;;;;;;;;;;",
";;;;;;;XXXO@@@@OO@@O@@O@@X@XXXX&&&&***oo;;;;;;;;;;;;;;;;;;;;;;;;",
";;;XXXXXX@@O@OO&&&&&@@@@XXXXoooo&&&&***oooo;;;;;;;;;;;;;;;;;;;;;",
";;XX@@XX@@@&&&&&&&&&&&&&&&@OOOOoo&&&***@@@oo;;;;;;;;;;;;;;;;;;;;",
";XX@@@X@@@&&&&&&&&&&&&&&&&&&&&Ooo&&&&**@@@@@o;;;;;;;;;;;;;;;;;;;",
";X@@@@O@@&&&&&&&&&&&&&&&&&&&&&&&&&&&&&&@@ooooooooooooooo;;;;;;;;",
"XX@@@@&@@&&&&&&&&&&&&&&&&&&&&&&&&&&&&&&&&&XXXXXXXXXXX@@oooooo;;;",
"X&&&&&&&&&&&&O&XX&&&&&&&&&&&&&&&&&oooo&&&&&&X@@@@@@@@@&&&&&&ooo;",
"X&&&&&&&&&&&@@OoXXXXXX&&&&&&&&oooXXXOooo&&&&&&&&&&&&&XX&&&&&&&&o",
"X&&&&&&&&&&&@@OOooooooo&&&&&ooXXXXO@@@Oooo&&&&&&&&XXXoXXX&&&&&&&",
"X&&&&&&&&&&&@@@@OOOOOOoo&&&&XXX@@@@@@@@@Oo&&&&&&XXXoo&&&&&&&&&&o",
";XX&&&&&&&&&&&ooo@@@@@@@o&&O&&&&&&&&&&@@@@o&&&&XXXo&&&&&&&&&&&oX",
";;XXXXXXXXooooo;ooo&&&@@@OOO&&&&&&&&&&&@@@&&&&&o&&&&&&&&&&&OooXX",
";;;;;;;;;;;;;;;;;ooO&&&@@@@@&&&&&&&&&&&&&&&&&&&&&&&&&&@@@@OooX;;",
";;;;;;;;;;;;;;;;;;oO&&&@@@&&&&&&&&&&@@@@@@@@@&&&&&&@@@@@@Ooo;;;;",
";;;;;;;;;;;;;;;;;;;oooO&&&&&&&&&&&&@@OOOooOO@&&&@@@@@@@@ooo;;;;;",
";;;;;;;;;;;;;;;;;;;;;ooOOOO&&&@@@@@OOoooooooo@@OOOOOoooo;;;;;;;;",
";;;;;;;;;;;;;;;;;;;;;;;ooooooooooooooo;;;;;;;;ooooooo;;;;;;;;;;;"
};
