/* XPM */
static char *result[] = {
/* columns rows colors chars-per-pixel */
"64 64 15 1 ",
"  c #010101",
". c #292120",
"X c #443634",
"o c #5F504E",
"O c #927977",
"+ c #94807E",
"@ c #A28683",
"# c #A48E8B",
"$ c #A38F8D",
"% c #B39D9B",
"& c #B69D9A",
"* c #B6A09E",
"= c #B4A29F",
"- c white",
"; c black",
/* pixels */
";;;;;;;;;;;;;;;;;;;XXXXXXXXXXXXXXXX;;;;;;;;;;;;;;;;;;;;;;;;;;;;;",
";;;;;;;;;;;;;;;;;;XXX++&&&&&&&&&&&XXX;    ;;;;;;;;;;;;;;;;;;;;;;",
";;;;;;;;;;;;;;;;;XX++++*&&&&&&&&&&&&XX ;;   ;;;;;;;;;;;;;;;;;;;;",
";;;;;;;;;;;;;;;;XX*+++**&&&&&&&&&****XXXoo;;  ;;;;;;;;;;;;;;;;;;",
";;;;;;;;;    ;oXoO*++***&+####&&******##*o;;;     ;;;;;;;;;;;;;;",
";;;;;;;;;;;;    OOO++***&+####&&******##*o;;;;;;;; ;;;;;;;;;;;;;",
";;;;;;;;;;;;;oOOOOO++=%=%&##ooo#&&***#oo**XX ;;;;;;;;;;;;;;;;;;;",
";;;;;;;;;;;;;ooo@OO@+*+**&&#ooooo#&&&#oooo**X  ;;;;;;;;;;;;;;;;;",
";;;;;;;;;;;;;oOOOOO*+*+*&&#ooX.oo&&&##o..Xo*XX   ;;;; ;;;;;;;;;;",
";;;;;;;;;;;;oO  OOO++@+%&&#ooX.Xo&&&#oX..Xo*XX;;      ;;;;;;;;;;",
";;;;;;;;;;;;    OOO*O@=*&&#oX--.o&###oX..Xo**X;;;;;;;;;;;;;;;;;;",
";;;;;;;;;;   OOOOOO**@@%&&#o.- .o&###o--.Xo*XX;;;;;;;;;;;;;;;;;;",
";;;;;;;;   XXOOOOOOO*@==&&#o.- .o&##oX- Xo&*X;;;;;;;;;;;;;;;;;;;",
";;;;;;;; ;;XOOOOOOOOO@$=&&#X.--Xo###oX--oo&*X;;;;;;;;;;;;;;;;;;;",
";;;;;;   ;;XOOOOOO@OO**=&&+X.X.Xo#ooX..oo***X;;;;;;;;;;;;;;;;;;;",
";;;;;; ;;;;oOOOOOOOOO@*&+&&#X..Xo#oo..Xo****X    ;;;;;;;;;;;;;;;",
";;;;;;;;;;;XOOOOOOO@@$=*&&&#X..o&#oo.Xo*****X;;;  ;;;;;;;;;;;;;;",
";;;;;;;;;;;XOOOOOOO@OO=***&#o.Xo&#ooXXo*****X;;;;  ;; ;;;;;;;;;;",
";;;;;;;;;   ooOOOOOO@@@&&*&&#XXo&#ooXo*&****X;;;;;    ;;;;;;;;;;",
";;;;;;;;  ;;ooOOOO@@@@@+&**&&XXo##oooo******X;;;;;;;;;;;;;;;;;;;",
";;;;;;; ;;;;oooOO@@OOO@@++&&&XXo##oooo******X;;;;;;;;;;;;;;;;;;;",
";;;;   ;;;;;;XoOOO@@@@@@@++&&#oo####oo*****XX;;;;;;;;;;;;;;;;;;;",
";;;;;;;;;;;;;XXoOO@OOOOO@@+&&&#oo###oo****&X;;;;;;;;;;;;;;;;;;;;",
";;;;;;;;;;;;;;XoOOO@@@@@@@@+&&&#o&###oo**&XX;;;;;;;;;;;;;;;;;;;;",
";;;;;;;;;;;;;;XXoOO@@@@@++@++&&&#o&&##o**&X;;;;;;;;;;;;;;;;;;;;;",
";;;;;;;;;;;;;;;XXOO@@@@O@@@+&+&&&&&&&#***XX;;;;;;;;;;;;;;;;;;;;;",
";;;;;;;;;;;;;;;;XoOOO@OO@@@@+&&&&&&*****X;;;;;;;;;;;;;;;;;;;;;;;",
";;;;;;;;;;;;;;;;XXoOOOOOO@@@@&&&&&&****&X;;;;;;;;;;;;;;;;;;;;;;;",
";;;;;;;;;;;;;;;;;XX@@OOO@@O@@@&&&&*****XX;;;;;;;;;;;;;;;;;;;;;;;",
";;;;;;;;;;;;;;;;;;XXXOOO@OO@+&&+&&*****X;;;;;;;;;;;;;;;;;;;;;;;;",
";;;;;;;;;;;;;;;;;;;XXXO@@@@@&+&&&****&XX;;;;;;;;;;;;;;;;;;;;;;;;",
";;;;;;;;;;;;;;;;;;;;;XoOO@@@&&+&&&***&X;;;;;;;;;;;;;;;;;;;;;;;;;",
";;;;;;;;;;;;;;;;;;;;XXXoO@@@@+&*&&***&X;;;;;;;;;;;;;;;;;;;;;;;;;",
";;;;;;;;;;;;;;;;;;;;;XXoO@@@+&&******X;;;;;;;;;;;;;;;;;;;;;;;;;;",
";;;;;;;;;;;;;;;;;;;;;XXXoO@@@&******X;;;;;;;;;;;;;;;;;;;;;;;;;;;",
";;;;;;;;;;;;;;;;;;;;;;XooO@@@&&*****X;;;;;;;;;;;;;;;;;;;;;;;;;;;",
";;;;;;;;;;;;;;;;;;;;;;XX@@@@&&+*****X;;;;;;;;;;;;;;;;;;;;;;;;;;;",
";;;;;;;;;;;;;;;;;;;;;;;X@OO@@&&****X;;;;;;;;;;;;;;;;;;;;;;;;;;;;",
";;;;;;;;;;;;;;;;;;;;;;;XO@@@@&&&***X;;;;;;;;;;;;;;;;;;;;;;;;;;;;",
";;;;;;;;;;;;;;;;;;;;;;;XX@@@@&&&&**X;;;;;;;;;;;;;;;;;;;;;;;;;;;;",
";;;;;;;;;;;;;;;;;;;;;;;;X@@@&&&&&**X;;;;;;;;;;;;;;;;;;;;;;;;;;;;",
";;;;;;;;;;;;;;;;;;;;;;;;X@O@@&&&&**X;;;;;;;;;;;;;;;;;;;;;;;;;;;;",
";;;;;;;;;;;;;;;;;;;;;;;;X@@@@&&&&**XX;;;;;;;;;;;;;;;;;;;;;;;;;;;",
";;;;;;;;;;;;;;;;;;;;;;;;X@@@@&&&&***o;;;;;;;;;;;;;;;;;;;;;;;;;;;",
";;;;;;;;;;;;;;;;;;;;;oXXoO@@@&&&&&**o;;;;;;;;;;;;;;;;;;;;;;;;;;;",
";;;;;;;;;;;XXXXoooooXXOO@@@@@&&&&**oo;;;;;;;;;;;;;;;;;;;;;;;;;;;",
";;;;;;;;;XXXOOO@@@@@OOOOOOO@@&&&&&**oo;;;;;;;;;;;;;;;;;;;;;;;;;;",
";;;;;;;XXXO@@@@OO@@O@@O@@X@XXX&&&&***oo;;;;;;;;;;;;;;;;;;;;;;;;;",
";;;XXXXXX@@O@OO&&&&&@@@@XXXXooo&&&&***oooo;;;;;;;;;;;;;;;;;;;;;;",
";;XX@@XX@@@&&&&&&&&&&&&&&&@OOOoo&&&***@@@oo;;;;;;;;;;;;;;;;;;;;;",
";XX@@@X@@@&&&&&&&&&&&&&&&&&&&&Oo&&&&**@@@@@o;;;;;;;;;;;;;;;;;;;;",
";X@@@@O@@&&&&&&&&&&&&&&&&&&&&&&&&&&&&&@@ooooooooooooooo;;;;;;;;;",
"XX@@@@&@@&&&&&&&&&&&&&&&&&&&&&&&&&&&&&&&&&XXXXXXXXXX@@ooooooo;;;",
"X&&&&&&&&&&&&O&XX&&&&&&&&&&&&&&&&&oooo&&&&&&X@@@@@@@@@&&&&&&ooo;",
"X&&&&&&&&&&&@@OoXXXXXX&&&&&&&&oooXXXOooo&&&&&&&&&&&&&XX&&&&&&&&o",
"X&&&&&&&&&&&@@OOooooooo&&&&&ooXXXXO@@@Oooo&&&&&&&&XXXoXXX&&&&&&&",
"X&&&&&&&&&&&@@@@OOOOOOoo&&&&XXX@@@@@@@@@Oo&&&&&&XXXoo&&&&&&&&&&o",
";XX&&&&&&&&&&&ooo@@@@@@@o&&O&&&&&&&&&&@@@@o&&&&XXXo&&&&&&&&&&&oX",
";;XXXXXXXXooooo;ooo&&&@@@OOO&&&&&&&&&&&@@@&&&&&o&&&&&&&&&&&OooXX",
";;;;;;;;;;;;;;;;;ooO&&&@@@@@&&&&&&&&&&&&&&&&&&&&&&&&&&@@@@OooX;;",
";;;;;;;;;;;;;;;;;;oO&&&@@@&&&&&&&&&&@@@@@@@@@&&&&&&@@@@@@Ooo;;;;",
";;;;;;;;;;;;;;;;;;;oooO&&&&&&&&&&&&@@OOOooOO@&&&@@@@@@@@ooo;;;;;",
";;;;;;;;;;;;;;;;;;;;;ooOOOO&&&@@@@@OOoooooooo@@OOOOOoooo;;;;;;;;",
";;;;;;;;;;;;;;;;;;;;;;;ooooooooooooooo;;;;;;;;ooooooo;;;;;;;;;;;"
};
