/* XPM */
static char *result[] = {
/* columns rows colors chars-per-pixel */
"64 64 15 1 ",
"  c #010101",
". c #292120",
"X c #443634",
"o c #5F504E",
"O c #927977",
"+ c #94807E",
"@ c #A28683",
"# c #A48E8B",
"$ c #A38F8D",
"% c #B39D9B",
"& c #B69D9A",
"* c #B6A09E",
"= c #B4A29F",
"- c white",
"; c black",
/* pixels */
";;;;;;;;;;;;;;;;;;;;;XXXXXXXXXXX;;;;;;;;;;;;;;;;;;;;;;;;;;;;;;;;",
";;;;;;;;;;;;;;;;;;XXXX&&&&&&&&&XX;;;;;;;;;;;;;;;;;;;;;;;;;;;;;;;",
";;;;;;;;;;;;;;;;XXXXX&&&&&&&&&&XXX;;;;;;;;;;;;;;;;;;;;;;;;;;;;;;",
";;;;;;;;;;;;;;;XXXXX++&&&&&&&&&&&XX;    ;;;;;  ;;;;;;;;;;;;;;;;;",
";;;;;;;;;;;;;;oXoOO+++*&&&&&&&&&&&XX ;;   ;;; ;;;;;;;;;;;;;;;;;;",
";;;;;;;;;;;     OOO+++*&&&&&&&&****XXX;;;;    ;;;;;;;;;;;;;;;;;;",
";;;;;;;;;;  ;oOOOO++**&+#####&&**###*XX;;;;;;;;;;;;;;;;;;;;;;;;;",
";;;;;;;;;  ;ooO@OO++=%&##ooo##&*##oo**XX ;;;;;;;;;;;;;;;;;;;;;;;",
";;;;;;;;;;;ooOOOO@+**&&#ooooo#&&#oooo**X  ;;;;;;;;;;;;;;;;;;;;;;",
";;;;;;;;;;;oO  OO++*&&#ooX.oo&&##o..Xo*XX  ;;;;;;;;;;;;;;;;;;;;;",
";;;;;;;;;;;   OOO@+%&&#ooX.Xo&&#oX..Xo**X;  ;;;;;;;;;;;;;;;;;;;;",
";;;;;;;;;;  OOOOO@=*&&#oX--.o&##o--.Xo*XX;;;  ;;;;;;;;;;;;;;;;;;",
";;;;;;;;   XOOOOO@@%&&#o.- .o&#oX- Xo&*X;;;;;  ;;;;;;;;;;;;;;;;;",
";;;;;;;; ;;XOOOOO@==&&#X.--Xo##oX--oo&*X;;;;;;   ;;;;;;;;;;;;;;;",
";;;;;;   ;;XOOO@O@$=&&+X.X.Xo#oX..oo***X;;;;;;;; ;;;;;;;;;;;;;;;",
";;;;;; ;;;;oOOOOO@==&&&#X..Xo#o..Xo****X    ;;;;;;;;;;;;;;;;;;;;",
";;;;;;;;;;;XOOOO@$=&+&&#X..o&#o.Xo*****X;;;  ;;;;;;;;;;;;;;;;;;;",
";;;;;;;;;;;XOOOO@O=&&&&#o.Xo&#oXXo*****X;;;; ;;;;;;;;;;;;;;;;;;;",
";;;;;;;;;   oOOOO@@&&&&&#XXo&#oXo*&****X;;;  ;;;;;;;;;;;;;;;;;;;",
";;;;;;;;; ;;oOOO@@@+&&&&+XXo##ooo******X;;  ;;;;;;;;;;;;;;;;;;;;",
";;;;;;;;;  ;ooOO@O@@++&&&#oo###oo*****XX;;;  ;;;;;;;;;;;;;;;;;;;",
";;;;;;;;;; ;XoOOO@@@@++&&##oo##oo****&X;;;;;;;;;;;;;;;;;;;;;;;;;",
";;;;;;;;;; ;XXoOO@OO@@+&&&##o&##oo**&XX;;;;;;;;;;;;;;;;;;;;;;;;;",
";;;;;      ;;XoOOO@@@@@+&&&##o&##o**&X;;;;;;;;;;;;;;;;;;;;;;;;;;",
";;;;;;;;;;;;;XXoOO@@@+@++&&&##&&#***XX;;;;;;;;;;;;;;;;;;;;;;;;;;",
";;;;;;;;;;;;;;XXOO@@O@@+&+&&&&&****&X;;;;;;;;;;;;;;;;;;;;;;;;;;;",
";;;;;;;;;;;;;;;XoOO@O@@@+&&&&&&****&X;;;;;;;;;;;;;;;;;;;;;;;;;;;",
";;;;;;;;;;;;;;;XXoOOOO@@@&&&&&&****XX;;;;;;;;;;;;;;;;;;;;;;;;;;;",
";;;;;;;;;;;;;;;;XX@OOO@O@@&&&&*****X;;;;;;;;;;;;;;;;;;;;;;;;;;;;",
";;;;;;;;;;;;;;;;;XXOOO@O@+&+&&*****X;;;;;;;;;;;;;;;;;;;;;;;;;;;;",
";;;;;;;;;;;;;;;;;;XXO@@@@&+&&****&XX;;;;;;;;;;;;;;;;;;;;;;;;;;;;",
";;;;;;;;;;;;;;;;;;;XoOO@@&&+&&***&X;;;;;;;;;;;;;;;;;;;;;;;;;;;;;",
";;;;;;;;;;;;;;;;;;;XXoO@@@+&*&***&X;;;;;;;;;;;;;;;;;;;;;;;;;;;;;",
";;;;;;;;;;;;;;;;;;;;XoO@@@+&*****X;;;;;;;;;;;;;;;;;;;;;;;;;;;;;;",
";;;;;;;;;;;;;;;;;;;;XXoO@@@&*****X;;;;;;;;;;;;;;;;;;;;;;;;;;;;;;",
";;;;;;;;;;;;;;;;;;;;;XoO@@@&&****X;;;;;;;;;;;;;;;;;;;;;;;;;;;;;;",
";;;;;;;;;;;;;;;;;;;;;XX@@@&&+****X;;;;;;;;;;;;;;;;;;;;;;;;;;;;;;",
";;;;;;;;;;;;;;;;;;;;;;X@O@@&&****X;;;;;;;;;;;;;;;;;;;;;;;;;;;;;;",
";;;;;;;;;;;;;;;;;;;;;;XO@@@&&&***X;;;;;;;;;;;;;;;;;;;;;;;;;;;;;;",
";;;;;;;;;;;;;;;;;;;;;;XX@@@&&&&**X;;;;;;;;;;;;;;;;;;;;;;;;;;;;;;",
";;;;;;;;;;;;;;;;;;;;;;;X@@@&&&&**X;;;;;;;;;;;;;;;;;;;;;;;;;;;;;;",
";;;;;;;;;;;;;;;;;;;;;;;X@O@@&&&**X;;;;;;;;;;;;;;;;;;;;;;;;;;;;;;",
";;;;;;;;;;;;;;;;;;;;;;;X@@@@&&&**XX;;;;;;;;;;;;;;;;;;;;;;;;;;;;;",
";;;;;;;;;;;;;;;;;;;;;;;X@@@@&&&***o;;;;;;;;;;;;;;;;;;;;;;;;;;;;;",
";;;;;;;;;;;;;;;;;;;;;XXoO@@@&&&&**o;;;;;;;;;;;;;;;;;;;;;;;;;;;;;",
";;;;;;;;;;;;;;;;;;;;oXo@@@@@&&&&**oo;;;;;;;;;;;;;;;;;;;;;;;;;;;;",
";;;;;;;;;;;XXXXooooXXOOOOO@@&&&&&**oo;;;;;;;;;;;;;;;;;;;;;;;;;;;",
";;;;;;;;;XXXOOO@@@@OOOOOO@XXX&&&&***oo;;;;;;;;;;;;;;;;;;;;;;;;;;",
";;;;;;;XXXO@@@@OO@O@@O@@XXXooo&&&&***oooo;;;;;;;;;;;;;;;;;;;;;;;",
";;;XXXXXX@@O@OO&&&&@@@@XX@OOOoo&&&***@@@ooo;;;;;;;;;;;;;;;;;;;;;",
";;XX@@XX@@@&&&&&&&&&&&&&&&&&&Oo&&&&**@@@@@ooooooooooo;;;;;;;;;;;",
";XX@@@X@@@&&&&&&&&&&&&&&&&&&&&&&&&&&&@@ooooXXXXXXX@@ooooooo;;;;;",
";X@@@@O@@&&&&&&&&&&&&&&&&&&&&&&&&&&&&&&&&XXX@@@@@@@@&&&&&&ooo;;;",
"XX@@@@&@@&&&&&&&&&&&&&&&&&&&&&&&&oooo&&&&&&&&&&&&&&XX&&&&&&&&ooX",
"X&&&&&&&&&&&&O&XX&&&&&&&&&&&&oooXXXOooo&&&&&&&&&XXXoXXX&&&&&&&oX",
"X&&&&&&&&&&&@@OoXXXXX&&&&&&ooXXXXO@@@Oooo&&&&&&XXoo&&&&&&&&&&oXX",
"X&&&&&&&&&&&@@OOoooooo&&&&&XXX@@@@@@@@@Oo&&&&&XXo&&&&&&&&&&&oXX;",
"X&&&&&&&&&&&@@@@OOOOOoo&&&O&&&&&&&&&&@@@@o&&&&o&&&&&&&&&&OooXX;;",
";XX&&&&&&&&&&&ooo@@@@@@oOOO&&&&&&&&&&&@@@&&&&&&&&&&&@@@@OooX;;;;",
";;XXXXXXXXooooo;oo&&&@@@@@@&&&&&&&&&&&&&&&&&&&&&&&@@@@@Ooo;;;;;;",
";;;;;;;;;;;;;;;;;oO&&&@@@&&&&&&&&&&@@@@@@@@@&&&@@@@@@@ooo;;;;;;;",
";;;;;;;;;;;;;;;;;;oooO&&&&&&&&&&&&@@OOOooOO@@@OOOOOooo;;;;;;;;;;",
";;;;;;;;;;;;;;;;;;;;ooOOOO&&&@@@@@OOoooooooooooooooo;;;;;;;;;;;;",
";;;;;;;;;;;;;;;;;;;;;;ooooooooooooooo;;;;;;;;;;;;;;;;;;;;;;;;;;;"
};
