/* XPM */
static char *result[] = {
/* columns rows colors chars-per-pixel */
"64 64 7 1 ",
"  c #1D1912",
". c #31281B",
"X c #3F311E",
"o c #594325",
"O c #77582E",
"+ c #8E7451",
"@ c black",
/* pixels */
"@@@@@@@@@@@@@@@@@@@@@@@@@@@@@@@@@XXXXXXXXXXX@@@@@@@@@@@@@@@@@@@@",
"@@@@@@@@@@@@@@@@@@@@@@@@@@@@@@@@XXooOooOooOXX@@@@@@@@@@@@@@@@@@@",
"@@@@@@@@@@@@@@@@@@@@@@@@@@@@@@@XXooooooOoooOXXX@@@@@@@@@@@@@@@@@",
"@@@@@@@@@@@@@@@@@@@@@@@@@@@@@@XXoooOOOOOOOooOoXX@@@@@@@@@@@@@@@@",
"@@@@@@@@@@@@@@@@@@@@@@@@@@@@@@XoOoOOO++O++OOOOoX@@@@@@@@@@@@@@@@",
"@@@@@@@@@@@@@@@@@@@@@@@@@@@@@XXOoooO++OO+++OOOOoX@@@@@@@@@@@@@@@",
"@@@@@@@@@@@@@@@@@@@@@@@@@@@@XXoOooo++++++O+OOOOoXX@@@@@@@@@@@@@@",
"@@@@@@@@@@@@@@@@@@@@@@@@@@@@XooooO+++O+++O++OOOOoXX@@@@@@@@@@@@@",
"@@@@@@@@@@@@@@@@@@@@@@@@@@@XXoooOO+++O+O+O+++OOOOoXXXXX@@@@@@@@@",
"@@@@@@@@@@@@@@@@@@@@@@@@@@@XooOOOO+OO++O++++OOOOOOooooXXX@@@@@@@",
"@@@@@@@@@@@@@@@@@@@@@@@@@@@XoOOO+O++O+++++O+OOOOOOOOOoooXX@@@@@@",
"@@@@@@@@@@@@@@@@@@@@XXXXXXXXOOOO++O+O+O+++O+++O+OOOOOOOOoXX@@@@@",
"@@@@@@@@@@@@@@@@@@XXXooooooXXXOO++OO+++O++++++++++OOOOOOOoXX@@@@",
"@@@@@@@@@@@@@@@@@XXooooooOoooXX+O++OO++O+++++++++++O+OOOOOOXX@@@",
"@@@@@@@@@@@@@@@@XXoooOOoOooOooXXOO+OOOOO+++XXXX++++++OOOOOOOX@@@",
"@@@@@@@@@@@@@@@XXooOoOOOOOoooooXXO+++OO+++++XXXX+++++OO++OOOXX@@",
"@@@@@@@@@@@@@@@XoooOOOOOOOOoOoooXX++++++++++XXXXX++++OO+++OOOX@@",
"@@@@@@@@@@@@@@XXooOOOO+O++OOOoOooX+++++++++++XXXXXXXXO+++OOOOXX@",
"@@@@@@@@@@@@@@XoOOOO++OOOOOOOOOOooX++++++++++XXX.XXXX++++O+OOOX@",
"@@@@@@@@@@@@@XXOOOO+O+OOOOOOO+OOOoX+++++++++++X...X.XX+++++OOOX@",
"@@@@@@@@@@@@@XooOOOOOO+OO+O+OO+OOOX+++++++++++X.....XXXX++XOOOXX",
"@@@@@@@@@@@@@XOoOO+OOO++O+O++O+O+OX+++++++++XXX... ...XX+XX++OXX",
"@@@@@@@@@@@@@XOoOO++O++X+++O+OOOOOXX+++++++XXXX... ....XXXX++OOX",
"@@@@@@@@@@@@@XOOOO+++++X+++++OO+OO+X+++++XXX....    ...XXXX++OOX",
"@@@@@@@@@@@@XXXOOO+++++X++++X++++O+X+++++XXXX..      . ..XX+++OX",
"@@@@@@@@@XXXXooOOoXXX+++++++XX+++O+X++++++XXX...        ..X+++OX",
"@@@@@@@@XXooooOOOOoooXXXX+++XX+++O+X+++++++XX...         .XX++OX",
"@@@@@@@XXoOOoOOOOOOoooOoXXXX++++++++++++++++XX..         .XXX+OX",
"@@@@@@XXoOOOOOOOOOOOoooOoOoXXX++++++++++++++XX..        ..XXXXOX",
"@@@@@XXoOOOOOOOO+++OOOOOoOoooXXX+++++++++++XX....       ..XXXXOX",
"@@@@XXoOOOOO++O+O++OOOOOOOOOOOOXX+++++++++XXXXX..       .XXX+XOX",
"@@@XXooOOO+O+++OOO++OO++OOOOOOOoXX+++++++XXXXXXX..      .XXX++OX",
"@@XXoOOOOOO+OO+O+O++O++++O+OOOOOoXX+++++++++XXXX..  .. ..XXX++OX",
"@XXoOOOOOOO+++++XX+++++++OO++OOOOoXX+++++++++++XX. ...X..XXX++OX",
"@XooOOOOOO++++++X.+++++++O+++++OOOOXX+++++++++XXX....XX.XXXX++OX",
"XoooOO+O+++++O++X.++++++++++++++OOOoXX++++++++XXX...XXX.XXXXX+OX",
"XooooOOOO+++++++XX+++++++++++++++OOOoXX+++++++XXX..XXXXXX++XXOOX",
"XooOOOO+O++XX+++++++++++++++++++++OOOoX++++++XXXXXXXX+XXX++++OOX",
"XooOOO+O+++X.++++++XX++++++++++++++OOoX++++++XXXXXXX++XXX+++OOXX",
"XoOOOOOO+++X.+++++X..+++++++++++++++OOoX+++++++XXXX+++XX+++OOOX@",
"XooOOO+++++XX++++X. .X+++++++++++++++++X+++OO++++++++++X+++OOXX@",
"XooOOO+++++++++++X...X++++++++++++++++++++OOOO++++++++++++OOOX@@",
"XooOOOO+++++++++++XXX+++++++++++++++++++++XOOOO++++++++++OOOOX@@",
"XoOOOO++++++++++++++++++++++++++++++++++++XXOOOO+++OOOOOOOOOXX@@",
"XoOOO++O++++++++++++++OOO+++++++++++++++++++XXOOOOOOOOOOOOOXX@@@",
"XoOOO+OO+++++++++++++OOOOO+++++++++++++++++++XXOOOOOOOOOOXXX@@@@",
"XoooOOO+++XXX++++++++OOOOOO++++++++X+++++++++OXXXOOOOOXXXX@@@@@@",
"XoooO+O++.. X+++++++++OOOOOOO++++++XX+++++++++++XXXXXXX@@@@@@@@@",
"XooOO+++X. X+++++++++++OOOOOOOOOO+++XX++++++++++++XX@@@@@@@@@@@@",
"XooOOOO+XXX+++++++++++++OOOOOOOOOOOO+XX++++++++++++X@@@@@@@@@@@@",
"XooOOOO++++++++X+++++++++OOOOOOOOOOOOOXX+++++++++++XX@@@@@@@@@@@",
"XXooOO+++++++++X.++++++O+++OOOOOOOOOOOOXXX++++++++++X@@@@@@@@@@@",
"@XoOOOOOO++++++X.+++++OOOO+++OOOOOOOOOOOOXX+++++++++X@@@@@@@@@@@",
"@XXOoOO+O+++++++X+++++O+OOOOOOOOOOOOOOOOOOOXX+++++++X@@@@@@@@@@@",
"@@XoooOO++++++++O++O++O+OOOOOOOOoOOOOOOOOOOOOXX+++++X@@@@@@@@@@@",
"@@XXooOO+OO+OO+O+OOO++OOOOOOooOooOOOOOOOOOOOOOOXXX++X@@@@@@@@@@@",
"@@@XoOOOOO++O++O+OO+OOOOOOOOoOooooOOoooOOOOOOOOOOXXXX@@@@@@@@@@@",
"@@@XXoooOO+OO+O+O++OOOOOOoOoooooOoooOooOOOOOOOOOOOOOXXXXXXXXX@@@",
"@@@@XXoOOOOO++O+OOOOOOOOOooooooXXXXoOOooOOOOoOOOOOOOOOOOOOOOX@@@",
"@@@@@XXooOOOO+OOOOOOoooOooooooXX++XXXoOoooOoooOOOOOOOOOOOOOOX@@@",
"@@@@@@XXOOOOooooOOoooooooooOoXX+++++XXoOooooOooOOoOOOOOOOOOXX@@@",
"@@@@@@@XooOooOooOoooooooOOooXX++++++++XXoOooOoOOooOOOOOOOOXX@@@@",
"@@@@@@@XXXoooooooooooooOOooXX++++++++++XXooooooooooOOOOOXXX@@@@@",
"@@@@@@@@@XXXXXXXXXXXXXXXXXXXXXXXXXXXXXXXXXXXXXXXXXXXXXXXX@@@@@@@"
};
