/* XPM */
static char *result[] = {
/* columns rows colors chars-per-pixel */
"64 64 7 1 ",
"  c #1D1912",
". c #31281B",
"X c #3F311E",
"o c #594325",
"O c #77582E",
"+ c #8E7451",
"@ c black",
/* pixels */
"@@@@@@@@@@@@@@@@@@@@@@@@@@@@@@@@@@@@@@@@@@@@@@@@@@@@@@@@@@@@@@@@",
"@@@@@@@@@@@@@@@@@@@@@@@@@@@@@@@@@@@@@@@@@@@@@@@@@@@@@@@@@@@@@@@@",
"@@@@@@@@@@@@@@@@@@@@@@@@@@@@@@@@@@@@@@@@@@@@@@@@@@@@@@@@@@@@@@@@",
"@@@@@@@@@@@@@@@@@@@@@@@@@@@@@@@@@@@@@@@@XXXXXX@@@@@@@@@@@@@@@@@@",
"@@@@@@@@@@@@@@@@@@@@@@@@@@@@@@@@@@@@XXXOoOooOX@@@@@@@@@@@@@@@@@@",
"@@@@@@@@@@@@@@@@@@@@@@@@@@@@@@@@@@@XXooooOoooOXX@@@@@@@@@@@@@@@@",
"@@@@@@@@@@@@@@@@@@@@@@@@@@@@@@@@@@XXooOOOOOOooXXX@@@@@@@@@@@@@@@",
"@@@@@@@@@@@@@@@@@@@@@@@@@@@@@@@@@XoOoOOO++++OOoXX@@@@@@@@@@@@@@@",
"@@@@@@@@@@@@@@@@@@@@@@@@@@@@@@@@XXOoooO++O++OOOoo@@@@@@@@@@@@@@@",
"@@@@@@@@@@@@@@@@@@@@@@@@@@@@@@@XXoOooo++++OOOOOOXX@@@@@@@@@@@@@@",
"@@@@@@@@@@@@@@@@@@@@@@@@@@@@@@@XooooO++O++++OOOOoXXXXX@@@@@@@@@@",
"@@@@@@@@@@@@@@@@@@@@@@@@@@@@XXXooooO+++OO+O+OOOOOooooXXX@@@@@@@@",
"@@@@@@@@@@@@@@@@@@@@@@@@@@@XXOooOOO+OO+++++OOOOOOOOOoooXX@@@@@@@",
"@@@@@@@@@@@@@@@@@@@@@@@@XXXXXXXOO+O++O+++++O++OOOOOOOOOoXX@@@@@@",
"@@@@@@@@@@@@@@@@@@@@@@@XXXXoooXXO++OO+++O++++++++OOOOOOOoXX@@@@@",
"@@@@@@@@@@@@@@@@@@@@@@XXooooooXXO++OOO++O+++++++++O+OOOOOOXX@@@@",
"@@@@@@@@@@@@@@@@@@@@@XXXooooooXXXO++OOOOO+++++++++++OOOOOOOX@@@@",
"@@@@@@@@@@@@@@@@@@@@XXoooooOoOooXXO+OOOO++++++++++++OO++OOOXX@@@",
"@@@@@@@@@@@@@@@@@@@XXoooOoOooooooXX+++O+++++++++++++OO+++OOOX@@@",
"@@@@@@@@@@@@@@@@@@XXooOoOOOOOOoOooX+++++++++++++++++++++OOOOXX@@",
"@@@@@@@@@@@@@@@@@@XoooOOOOOOOOOOOooX++++++++++++++++++++O+OOOX@@",
"@@@@@@@@@@@@@@@@XXXooOOOOO+OOO+OOOoX+++++++++++++X++++++++OOOX@@",
"@@@@@@@@@@@@@@@XXOOOOO++OOOO+OO+OOOX+++++++++++++..++++++++OOXX@",
"@@@@@@@@@@@@@@@XOoOO+OO++O+O++O+O+OX+++++++++++++..+++++++++OXX@",
"@@@@@@@@@@@@@@@X+O+++O++++++O+OOOOOXX+++++++++++++.X++++++++OOX@",
"@@@@@@@@@@@@@@XXXOOO++++X+++++OO+OO+X++++++++++ ++..++X+++++OOX@",
"@@@@@@@@@@@@@XXooOOOoX++++++++++++O+X++++++++++.. ..++.++X+++OX@",
"@@@@@@@@@@@@XXXXooOOoXX+++++++X+++O+X++++++++++++..  ..+XX+++OX@",
"@@@@@@@@@@@XXooooOOOoooXXX+++++++++++++++++++++++ .  ....++++OX@",
"@@@@@@@@@@XXoOOoOOOOOoooOoXX+XX+++++++++++++++++++..  . .X+++OX@",
"@@@@@@@@@XXoOOOOOOOOOOoooOoOoXXX+++++++++++++++.. .    ..XX++OX@",
"@@@@@@@@XXoOOOOOOO+++OOOOOoOoooXXX++++++++++++X.....  .+++XX+OX@",
"@@@@@@@XXoOOOOO+O+O++OOOOOOOOOOOOX+++++++++++++++++.  ..+++++OX@",
"@@@@@@XXooOOO+O++OOO++OO++OOOOOOOoXXX+++++++++++++...++XX++++OX@",
"@@@@@XXoOOOOOOOO+O+O++O++++O+OOOOOoXX++++++++++++....X++X++++OX@",
"@@@@XXoOOOOOO++++++O++O++++OO++OOOOoo+++++++++++X.++XX+++++++OX@",
"@@@@XooOOOOO+++++++++++++++O+++++OOooX++++++++++X++++X+++++++OX@",
"@@@XoooOO+O++++O+++..++++++O++++++OOOoX+++++++++X+++++++++++OOX@",
"@@@XooooOO+O+++O+++X.+++++++++++++OOOoX+++++++++++++++++++++OOX@",
"@@@XooOOO+O++++++++X+++++++++++++++OOOX++++++++++++++++++++OOX@@",
"@@@XoOOOOOO++X.+++++++++++++++++++++++oX++++++++++++++++++OOOX@@",
"@@@XooOOO++++X.++++++++++++++++++++++++X++++O++++++++++++++OX@@@",
"@@@XooOOO++++++++++++X.++++++++++++++++++++OOO++++++++++++OOX@@@",
"@@@XooOOOO+++++++++++...+++++++++++++++++++XOOO++++++++++OOOX@@@",
"@@@XoOOOO+++++++++++++X++++++++++++++++++++XXOOO+++OOOOOOOOXX@@@",
"@@@XoOOOO++++++++++++++++++++++++++++++++++++XXOOOOOOOOOOOXX@@@@",
"@@@XoOOO++++++++++++++++++++++++++++++++++++++XOOOOOOOOOOX@@@@@@",
"@@@XoooOOO+++++++++++++++OO+++++++XX+++++++++OXXXOOOOOXXX@@@@@@@",
"@@@XoooO+O++.X++++++++++OOOO+++++++XXX++++++++++XXXXXXX@@@@@@@@@",
"@@@XooOO+++. XX+++++++++OOOO+++++O+++X++++++++++++XX@@@@@@@@@@@@",
"@@@XooOOOO+XX+++++++++++OOOOOOOOOOOO+XXX+++++++++++X@@@@@@@@@@@@",
"@@@XoOOOO++++++++++++++++OOOOOOOOOOO+OOXXX+++++++++X@@@@@@@@@@@@",
"@@@XooOO++++++++++++++++++OOOOOOOOOOOOOOOXXX++++++++X@@@@@@@@@@@",
"@@@XoOOOOO++++++++++++++O+++++OOOOOOOOOOOOOXX+++++++X@@@@@@@@@@@",
"@@@XOoOO+O++++++X.+++++OOOOOOOOOOOOOOOOOOOOOX+++++++X@@@@@@@@@@@",
"@@@XoooOO++++++++X+++++O+OOOOOOOOOOOOOOOOOOOOXX+++++X@@@@@@@@@@@",
"@@@XoooOO+OO+OO+O+O+O++OOOOOOooOoOOOOOOOOOOOOOOXX+++X@@@@@@@@@@@",
"@@@XXooOOOO++O++O+OO+OOOOOOOOoOooooooooooOOOOOOOOOXXXX@@@@@@@@@@",
"@@@@XXoOOOO+OO+O+O++OOOOOOoOoooooXXXoOOooOOOOOOOOOOOOXXXX@@@@XXX",
"@@@@@XXooOOOO++O+OOOOOOOOOooooooX++XXXOOooOOOOOOOOOOOOOOXXXXXOOX",
"@@@@@@XXOOOOoooOOOOOOoooOoooooXX+++++XXooooooOOoOOOOOOOOOOOOOOOX",
"@@@@@@@XooOooOooOOOoooooooooXX+++++++++XXoOooooOooOOOOOOOOOOOOX@",
"@@@@@@@XXXoooooooooooooOOooXX+++++++++++XXoooooooOOoOOOOOOXXXX@@",
"@@@@@@@@@XXXXXXXXXXXXXXXXXXXXXXXXXXXXXXXXXXXXXXXXXXXXXXXXXX@@@@@"
};
