/* XPM */
static char *result[] = {
/* columns rows colors chars-per-pixel */
"64 64 7 1 ",
"  c #1D1912",
". c #31281B",
"X c #3F311E",
"o c #594325",
"O c #77582E",
"+ c #8E7451",
"@ c black",
/* pixels */
"@@@@@@@@@@@@@@@@@@@@@@@@@@@@@@@@@@@@@@@@@@@@@@@@@@@@@@@@@@@@@@@@",
"@@@@@@@@@@@@@@@@@@@@@@@@@@@@@@@@@@XXXXXXXXXXX@@@@@@@@@@@@@@@@@@@",
"@@@@@@@@@@@@@@@@@@@@@@@@@@@@@@@@@XXooOooOooOXX@@@@@@@@@@@@@@@@@@",
"@@@@@@@@@@@@@@@@@@@@@@@@@@@@@@@@XXooooooOoooOXXX@@@@@@@@@@@@@@@@",
"@@@@@@@@@@@@@@@@@@@@@@@@@@@@@@@XXoooOOOOOOOooOXX@@@@@@@@@@@@@@@@",
"@@@@@@@@@@@@@@@@@@@@@@@@@@@@@@@XoOoOOO++O++OOOoXX@@@@@@@@@@@@@@@",
"@@@@@@@@@@@@@@@@@@@@@@@@@@@@@@XXOoooO++OO+++OOOoXX@@@@@@@@@@@@@@",
"@@@@@@@@@@@@@@@@@@@@@@@@@@@@@XXoOooo++++++OOOOOooXX@@@@@@@@@@@@@",
"@@@@@@@@@@@@@@@@@@@@@@@@@@@@@XooooO+++O++O++OOOOOoXXXXX@@@@@@@@@",
"@@@@@@@@@@@@@@@@@@@@@@@@@@@XXooooOO+++OO+O+++OOOOOooooXXX@@@@@@@",
"@@@@@@@@@@@@@@@@@@@@@@@@@@@XooOOOO+OO++O++++OOOOOOOOOoooXX@@@@@@",
"@@@@@@@@@@@@@@@@@@@@@@@@@@XXOOOO+O++O+++++O+OOO+OOOOOOOOoXX@@@@@",
"@@@@@@@@@@@@@@@@@@@@@XXXXXoXXXOO++O+O+O+++O+++++++OOOOOOOoXX@@@@",
"@@@@@@@@@@@@@@@@@@@XXXoooooooXXO++OO+++O+++++++++++O+OOOOOOXX@@@",
"@@@@@@@@@@@@@@@@@@XXoooooOoOooXXO++OO++O++++XXX++++++OOOOOOOX@@@",
"@@@@@@@@@@@@@@@@@XXoooOoOooooooXXO+OOOOO+++++XXX+++++OO++OOOXX@@",
"@@@@@@@@@@@@@@@@XXooOoOOOOOoOoooXX+++OO++++++XXX+++++OO+++OOOX@@",
"@@@@@@@@@@@@@@@@XoooOOOOOOOOOoOooX++++++++++++XXX++XX++++OOOOXX@",
"@@@@@@@@@@@@@@@XXooOOOOO++OOOOOOooX+++++++++++XXXXXXX++++O+OOOX@",
"@@@@@@@@@@@@@@XoOOOO++OOOOOOO+OOOoX+++++++++++XXXXX.X++++++OOOX@",
"@@@@@@@@@@@@@XXOOOO+O+OOOOO+OO+OOOX++++++++++++X.X..XX+X++++OOXX",
"@@@@@@@@@@@@@XOoOO+OOO++O+O++O+O+OX++++++++++XXX.. .X.XX+++++OXX",
"@@@@@@@@@@@@@XOOOO++O++X+++O+OOOOOXX++++++++XXXX.. .XXXX++X++OOX",
"@@@@@@@@@@@@XXXOOO+++++X+++++OO+OO+X++++++XX..X.    ..XXXXX++OOX",
"@@@@@@@@@@@XXooOOOoXX++++++++++++O+X+++++XXXXX.     .. ..XX+++OX",
"@@@@@@@@@@XXXXooOOoXXX++++++XX+++O+X++++++++XX..       ..XX+++OX",
"@@@@@@@@@XXooooOOOOoooXXXX++XX+++O+X++++++++XX...       ..XX++OX",
"@@@@@@@@XXoOOoOOOOOOoooOoXXXX++++++++++++++++XX..        .XXX+OX",
"@@@@@@@XXoOOOOOOOOOOOoooOoOoXXX++++++++++++++XX..       .XXXX+OX",
"@@@@@@XXoOOOOOOOO+++OOOOOoOoooXXX+++++++++++X.X..       .XXXXXOX",
"@@@@@XXoOOOOO++O+O++OOOOOOOOOOOOX++++++++++XXXX..       .XX++XOX",
"@@@@XXooOOO+O+++OOO++OO++OOOOOOOoXX++++++++XXXXX....    XXX+++OX",
"@@@XXoOOOOOO+OO+O+O++O++++O+OOOOOoXX++++++++++++..  ....XXX+++OX",
"@@XXoOOOOOOO++++++O++O++++OO++OOOOoXX+++++++++++X. ...X.XXX+++OX",
"@@XooOOOOOO++++++XX+++++++O+++++OOOoX+++++++++++X...XXX.XXXX++OX",
"@XoooOO+O+++++O++X..++++++O++++++OOOoX+++++++++XX.XXXXX.X+XX++OX",
"@XooooOOOO++++O++XX.++++++++++++++OOOoX++++++++XXXXXXXXX+++X+OOX",
"@XooOOOO+O++X+++++XX+++++++++++++++OOoX+++++++XXXXXX++XX+++++OOX",
"@XooOOO+O+++XX++++++++++++++++++++++OOX+++++++XXXXX+++XX++++OOXX",
"@XoOOOOOO+++X.+++++++X++++++++++++++++oX++++++++++++++X++++OOOX@",
"@XooOOO+++++X.++++++X..++++++++++++++++X+++OO++++++++++++++OOXX@",
"@XooOOO++++++X+++++X. .X++++++++++++++++++OOOO++++++++++++OOOX@@",
"@XooOOOO+++++++++++X...X++++++++++++++++++XOOOO++++++++++OOOOX@@",
"@XoOOOO+++++++++++++XX++++++++++++++++++++XXOOOO+++OOOOOOOOOXX@@",
"@XoOOOO+++++++++++++++++++++++++++++++++++++XXOOOOOOOOOOOOOXX@@@",
"@XoOOO++O++++++++++++++++++++++++++++++++++++XXOOOOOOOOOOXXX@@@@",
"@XoOOO+OO+++++++++++++++OO+++++++++++++++++++OXXXOOOOOXXXX@@@@@@",
"@XoooOOO+++++++++++++++OOOO++++++++XX+++++++++++XXXXXXX@@@@@@@@@",
"@XoooO+O++..XX+++++++++OOOOO+++++++XXX++++++++++++XX@@@@@@@@@@@@",
"@XooOO+++X. XX+++++++++OOOOOOOOOOO+++XX++++++++++++X@@@@@@@@@@@@",
"@XooOOOO+XXX++++++++++++OOOOOOOOOOOOOOX++++++++++++XX@@@@@@@@@@@",
"@XooOOOO+++++++++++++++++OOOOOOOOOOOOOXX++++++++++++X@@@@@@@@@@@",
"@XXooOO+++++++++++++++++++OOOOOOOOOOOOOXXX++++++++++X@@@@@@@@@@@",
"@@XoOOOOOO++++++X.++++++O+++++OOOOOOOOOOOXXX++++++++X@@@@@@@@@@@",
"@@XXOoOO+O++++++X.+++++OOOOOOOOOOOOOOOOOOOOOXX++++++X@@@@@@@@@@@",
"@@@XoooOO++++++++X+++++O+OOOOOOOOOOOOOOOOOOOOOXX+++++X@@@@@@@@@@",
"@@@XoooOO+OO+OO+O+O+O++OOOOOOooOoOOOoooOOOOOOOOOXXX++X@@@@@@@@@@",
"@@@XXooOOOO++O++O+OO+OOOOOOOOoOoooooOooOOOOOOOOOOOXXXX@@@@@@@@@@",
"@@@@XXoOOOO+OO+O+O++OOOOOOoOoooooXXoOOooOOOOOoOOOOOOOXXXXXXXXX@@",
"@@@@@XXooOOOO++O+OOOOOOOOOooooooX+XXXoOoooOooooOOOOOOOOOOOOOOX@@",
"@@@@@@XXOOOOoooOOOOOOoooOoooooXX++++XXoOooooOoooOOoOOOOOOOOOXX@@",
"@@@@@@@XooOooOooOOOoooooooooXX++++++++XXoOooOoOOooOOOOOOOOOXX@@@",
"@@@@@@@XXXoooooooooooooOOooXX++++++++++XXooooooooooOOOOOXXX@@@@@",
"@@@@@@@@@XXXXXXXXXXXXXXXXXXXXXXXXXXXXXXXXXXXXXXXXXXXXXXXX@@@@@@@"
};
