/* XPM */
static char *result[] = {
/* columns rows colors chars-per-pixel */
"64 64 7 1 ",
"  c #1D1912",
". c #31281B",
"X c #3F311E",
"o c #594325",
"O c #77582E",
"+ c #8E7451",
"@ c black",
/* pixels */
"@@@@@@@@@@@@@@@@@@@@@@@@@@@@@@@@@@@@@@@@@@@@@@@@@@@@@@@@@@@@@@@@",
"@@@@@@@@@@@@@@@@@@@@@@@@@@@@@@@@@@@@@@@@@@@@@@@@@@@@@@@@@@@@@@@@",
"@@@@@@@@@@@@@@@@@@@@@@@@@@@@@@@@@@@XXXXXXXXXX@@@@@@@@@@@@@@@@@@@",
"@@@@@@@@@@@@@@@@@@@@@@@@@@@@@@@@@@XXooOoOooOXX@@@@@@@@@@@@@@@@@@",
"@@@@@@@@@@@@@@@@@@@@@@@@@@@@@@@@@XXoooooOoooOXXX@@@@@@@@@@@@@@@@",
"@@@@@@@@@@@@@@@@@@@@@@@@@@@@@@@@XXoooOOOOOOooOXX@@@@@@@@@@@@@@@@",
"@@@@@@@@@@@@@@@@@@@@@@@@@@@@@@@@XoOoOOO++++OOOoXX@@@@@@@@@@@@@@@",
"@@@@@@@@@@@@@@@@@@@@@@@@@@@@@@@XXOoooO++O+++OOOoXX@@@@@@@@@@@@@@",
"@@@@@@@@@@@@@@@@@@@@@@@@@@@@@@XXoOooo+++++OOOOOooXX@@@@@@@@@@@@@",
"@@@@@@@@@@@@@@@@@@@@@@@@@@@@@@XooooO+++O++++OOOOOoXXXXX@@@@@@@@@",
"@@@@@@@@@@@@@@@@@@@@@@@@@@@@XXooooOO+++OO+O++OOOOOooooXXX@@@@@@@",
"@@@@@@@@@@@@@@@@@@@@@@@@@@@@XooOOOO+OO++O+++OOOOOOOOOoooXX@@@@@@",
"@@@@@@@@@@@@@@@@@@@@@@@@@@@XXOOOO+O++O+++++OOOO+OOOOOOOOoXX@@@@@",
"@@@@@@@@@@@@@@@@@@@@@@XXXXXoXXXOO++O+O+O+++O++++++OOOOOOOoXX@@@@",
"@@@@@@@@@@@@@@@@@@@@@XXoooooooXXO++OO+++O++++++++++O+OOOOOOXX@@@",
"@@@@@@@@@@@@@@@@@@@@XXXoooooooXXO++OOO++O++++++++++++OOOOOOOX@@@",
"@@@@@@@@@@@@@@@@@@@XXoooooOoOooXXO++OOOOO++++++++++++OO++OOOXX@@",
"@@@@@@@@@@@@@@@@@@XXoooOoOooooooXXO+OOOO++++++X++++++OO+++OOOX@@",
"@@@@@@@@@@@@@@@@@XXooOoOOOOOoOoooXX+++O+++++++XX+++++++++OOOOXX@",
"@@@@@@@@@@@@@@@@@XoooOOOOOOOOOoOooX+++++++++++XXX+XXX++++O+OOOX@",
"@@@@@@@@@@@@@@@XXXooOOOOO++OOOOOOooX++++++++++XXXXX.X++++++OOOX@",
"@@@@@@@@@@@@@@XXOOOOO++OOOOOOO+OOOoX+++++++++++X.X..X++X++++OOXX",
"@@@@@@@@@@@@@@XOoOOO+O+OOOOO+OO+OOOX+++++++++++X....X.XX+++++OXX",
"@@@@@@@@@@@@@@XOOOO+OOO++O+O++O+O+OX+++++++++++X....XXXX+++++OOX",
"@@@@@@@@@@@@@XXXOOO++O++X+++O+OOOOOXX+++++++++X.  ....XX++X++OOX",
"@@@@@@@@@@@@XXooOOOoXX++X+++++OO+OO+X+++++++XX. .. ......XX+++OX",
"@@@@@@@@@@@XXXXooOOoXXX+++++++++++O+X++++++++X....     ..XX+++OX",
"@@@@@@@@@@XXooooOOOOoooXXX+++XX+++O+X++++++++++...     ...X+++OX",
"@@@@@@@@@XXoOOoOOOOOOoooOoXX+XX++++++++++++++++...       .XX++OX",
"@@@@@@@@XXoOOOOOOOOOOOoooOoOoXXX++++++++++++++X...      ..XXX+OX",
"@@@@@@@XXoOOOOOOOO+++OOOOOoOoooXXX++++++++++++X..      ..XXXX+OX",
"@@@@@@XXoOOOOO++O+O++OOOOOOOOOOOOX++++++++++XXX.. .    ..XX+++OX",
"@@@@@XXooOOO+O+++OOO++OO++OOOOOOOoXX+++++++++++++....  .XXX+++OX",
"@@@@XXoOOOOOO+OO+O+O++O++++O+OOOOOoXX++++++++++++. .....XXX+++OX",
"@@@XXoOOOOOOO++++++O++O++++OO++OOOOoXX++++++++++X.....X.XXX+++OX",
"@@@XooOOOOOO++++++X++++++++O+++++OOOoX++++++++++X...XXX.++X+++OX",
"@@XoooOO+O+++++O++X..++++++O++++++OOOoX++++++++XX.XX++X++++X++OX",
"@@XooooOOOO++++O++XX.++++++++++++++OOOoX+++++++XXXX+++X++++++OOX",
"@@XooOOOO+O++X+++++X++++++++++++++++OOoX++++++XXXXX+++X++++++OOX",
"@@XooOOO+O+++X+++++++++++++++++++++++OOX++++++++++++++++++++OOX@",
"@@XoOOOOOO+++X.++++++++++++++++++++++++oX++++++++++++++++++OOOX@",
"@@XooOOO+++++X.++++++X.+++++++++++++++++X+++O++++++++++++++OOX@@",
"@@XooOOO++++++++++++X. .X++++++++++++++++++OOO++++++++++++OOOX@@",
"@@XooOOOO+++++++++++X...+++++++++++++++++++XOOO++++++++++OOOXX@@",
"@@XoOOOO++++++++++++++X++++++++++++++++++++XXOOO+++OOOOOOOOXX@@@",
"@@XoOOOO+++++++++++++++++++++++++++++++++++++XXOOOOOOOOOOOXX@@@@",
"@@XoOOO++O++++++++++++++++++++++++++++++++++++XOOOOOOOOOOX@@@@@@",
"@@XoooOOO++++++++++++++++OO++++++++XX++++++++OXXXOOOOOXXX@@@@@@@",
"@@XoooO+O++..X++++++++++OOOO+++++++XX+++++++++++XXXXXXX@@@@@@@@@",
"@@XooOO+++X. XX+++++++++OOOO+++++O+++X++++++++++++XX@@@@@@@@@@@@",
"@@XooOOOO++XX+++++++++++OOOOOOOOOOOOOXX++++++++++++X@@@@@@@@@@@@",
"@@XoOOOO+++++++++++++++++OOOOOOOOOOOOOX++++++++++++X@@@@@@@@@@@@",
"@@XooOO+++++++++++++++++++OOOOOOOOOOOOXX++++++++++++X@@@@@@@@@@@",
"@@XoOOOOOO+++++++.++++++O+++++OOOOOOOOOXXXX+++++++++X@@@@@@@@@@@",
"@@XXOoOO+O++++++X.+++++OOOOOOOOOOOOOOOOOOOXXX+++++++X@@@@@@@@@@@",
"@@@XoooOO++++++++X+++++O+OOOOOOOOOOOOOOOOOOOOXX++++++X@@@@@@@@@@",
"@@@XoooOO+OO+OO+O+O+O++OOOOOOooOoOOOoooOOOOOOOOXX++++X@@@@@@@@@@",
"@@@XXooOOOO++O++O+OO+OOOOOOOOoOoooooOooOOOOOOOOOOXXXXXX@@@@@@@@@",
"@@@@XXoOOOO+OO+O+O++OOOOOOoOoooooXXoOOoooOOOOOoOOOOOOXXXXXXXXXX@",
"@@@@@XXooOOOO++O+OOOOOOOOOooooooX+XXXoOooooOooooOOOOOOOOOOOOOOX@",
"@@@@@@XXOOOOoooOOOOOOoooOoooooXX++++XXoOoooooOoooOOoOOOOOOOOOXX@",
"@@@@@@@XooOooOooOOOoooooooooXX++++++++XXoOoooOoOOooOOOOOOOOOXX@@",
"@@@@@@@XXXoooooooooooooOOooXX++++++++++XXoooooooooooOOOOOXXX@@@@",
"@@@@@@@@@XXXXXXXXXXXXXXXXXXXXXXXXXXXXXXXXXXXXXXXXXXXXXXXXX@@@@@@"
};
