/* XPM */
static char *result[] = {
/* columns rows colors chars-per-pixel */
"64 64 8 1 ",
"  c #010101",
". c #2C210F",
"X c #483920",
"o c #862E2E",
"O c #82622F",
"+ c #A07878",
"@ c #9B8054",
"# c black",
/* pixels */
"################################################################",
"################################################################",
"################################################################",
"################################################################",
"################################################################",
"################################################################",
"##########################XXXXXXXXXX############################",
"#########################XX.@@OOOOOXXX##########################",
"#######################XX@@@@OOOOOOOOXX#########################",
"######################XX@@@@OOOOOOOOOOXX########################",
"################   XXX  @X@O@OOOOOOOO...XX######################",
"##################     @XXOOOO.OO.OO....XXXXX###################",
"##################    .XX..OO.OOO.O.......    ##################",
"##################    .XX..OO.OOO.O.......    ##################",
"##############     ...X ...OO.OOO.  . . ..      ################",
"################X       ..  . OO...       ...  #################",
"############### .     .  .  .O  ..o.         + #################",
"###########    .. X...@O@.  ..   .oo.@+ ..   .  ################",
"############  ..XX.@@@OO.. ... . ..o.X@+  ... +XX  #############",
"##########  XX.@X@.@@@@.. ...   . ....X+++     OX    ###########",
"#########  #XX.X@@@@@@X..      ........X++      OX # ###########",
"###########X...@@@.   .. O       .......XX+++.. OXX  ###########",
"###########X...@@@.   .. O       .......XX+++.. OXX ############",
"##.  #####X...X@.@X   ..OOO   OO .   ...+++++...OOX ############",
"##.    ###X.XX@@...   ..OOOO OOO .  . ....XXXX...OO  ###########",
"###.X   ##..XX@@@ O   .OOOOOOOOO . O. @...+++X....OX ###########",
"###.X+   #.O@@@XX O   OOOOOOO OO . OO   .....XX...OO  ##########",
"####..   #OO@@OOOOOOOOOOOOO    O   OO     ....XX...OX ##########",
"#####.+++  OOOXXOOOOOOOOOO   ...O .OO  @  ....+X+.. O #   ######",
"#####.X+++ XOOXXOOOOOOOO   ..+X.O .OO  @  ....+X+.. O   X ##X###",
"######X+++XXOOOXXOOOOO  ...X++X..OOOOOO.@@    .XX O O  XX ...###",
"#####XX++XXOOOOOOOOOO ..XX++X.OOOOOOOOO...OOO ..X  OO XXX .O ###",
"####XXXX..OOOOOOOOOO XXX+@++..OOO.O...O...OOO  .. OOOXXXX..O ###",
"#####X..O......OOOOO..+++++X.OOOOOO.......OOOO  .  OOXXXX.OO  ##",
"#### ...O.OO   OOOOO...@++XXOOOO..O.....@@...OO    O XXXX.OO.###",
"##.. . .O.OO   OOOXoX.X  +XOOO...............OOOOOOO XXXXOOO.###",
"##.  . O O   OOO  ooX... .XOOO..O.......OO...OO  OO.  XX.OOO ###",
"##           XXXX...   . .OOOOO.O.....O...OOOOOO OOXX XX.OO. ###",
"#.           XXXX...   . .OOOOXOOOO...O.....OOOX.OOX XX.OOO. ###",
"#      +..  @XXX@  ..   . XOOOXOOOO...O.....OOOX.O. X...OO.  ###",
"#      +@..@@XXX@@+ .++   OOOOX.OOOO..OOOOOOOOOX.  X..OOOO. ####",
"##    @++@@@X   @@+++++    OOOXX.OOOO.OOOOOOO.OO. X..OOOOO.  ###",
"## ## @@XX..     .@+++@  O OOOOX OOOOOOOOOOO..OO  XOOOOOOO.X ###",
"## #  X.....     ..@@+@X OOXOOOX .OOOOOOOOOO ..  XXOOOOOOO.X ###",
"## # X.....    . ....@X  OOXOOOO  .OOOOO....OO. .XOOOOO OO. ####",
"#### X..... ....  ...X  OOX OOOOX ..OO....X.OO. .XOOOOO OO. ####",
"####  ...X  .....   .. OOOO OOOO  X.O..XXX.OO...XOOOOOO  O. ####",
"####   ..  ++++++++ .. OOOX OOOOXXX...X. .OOO..XOOOOOOOO O. ####",
"#####   .  X++++X .  . OOO  OOOXX.X..XX  .OO...XOOOOO OO O. ####",
"##### . .. X.XX..    X.X   OOOXX ..X.   .OOO..XOOOOOX OO O..  ##",
"##### # .. . X# .#        OOOXXX X..X  ..OOO..XOOOOO  OO  O.X ##",
"#####  #..#. X# #.X .    OOXXXXX . .#   OOOOOOOOOOOX XOOO O..###",
"###### ##.## ## #.X .    OOOXX# #. ##  .OOOOOOOOOOXX  OOO O..X##",
"################....   # OOXX## ### ## .OOOOOOOOO  X  OOO O..X##",
"###############....   ## .OX.## ##     .OOOOOOOOX XX X OO OO.X##",
"##############.....  X## .OX.##### # #X .OOOOO    XXXX OOOOO.X #",
"########o#####.X..   ### ....####### #X .....  #  XXX  OOOOO.X #",
"######XXXX####.X.   #### .....######### ######   XX   OOOOOO..X ",
"######  . ####.X.  #####..OX...######## ######   XX   OOOOOO..X ",
"#####  ..X        .#...  OOXo. .############   XXXX  XO.XOOO..X#",
"####  ...  X  ..  #..X  o O  X    ########   XXXX   .X..oO....X#",
"#### ..X. .. ... #..   .X OO ...X  ######  XXXX   .....XoX....X#",
"#### .X#  ..  .. #.. .#   OO  X##X  #### XXXXX  ...oo.XooX.#XXX#",
"####XX## .... ...#...## ..... XX#XX #### XXXX X....o..XXX.XX####"
};
