/* XPM */
static char *result[] = {
/* columns rows colors chars-per-pixel */
"64 64 9 1 ",
"  c #010101",
". c #2C210F",
"X c #483920",
"o c #862E2E",
"O c #82622F",
"+ c #A07878",
"@ c #9B8054",
"# c #DBCCCC",
"$ c black",
/* pixels */
"$$$$$$$$$$$$$$$$$$$$$$$$$$$$$$$$$$$$$$$$$$$$$$$$$$$$$$$$$$$$$$$$",
"$$$$$$$$$$$$$$$$$$$$$$$$$$$$$$$$$$$$$$$$$$$$$$$$$$$$$$$$$$$$$$$$",
"$$$$$$$$$$$$$$$$$$$$$$$$$$$$$$$$$$$$$$$$$$$$$$$$$$$$$$$$$$$$$$$$",
"$$$$$$$$$$$$$$$$$$$$$$$$$$$$$$$$$$$$$$$$$$$$$$$$$$$$$$$$$$$$$$$$",
"$$$$$$$$$$$$$$$$$$$$$$$$$$$$$$$$$$$$$$$$$$$$$$$$$$$$$$$$$$$$$$$$",
"$$$$$$$$$$$$$$$$$$$$$$$$$$$$$$$$$$$$$$$$$$$$$$$$$$$$$$$$$$$$$$$$",
"$$$$$$$$$$$$$$$$$$$$$$$$$$$$$$$$$$$$$$$$$$$$$$$$$$$$$$$$$$$$$$$$",
"$$$$$$$$$$$$$$$$$$$$$$$$$$$$$$$$$$$$$$$$$$$$$$$$$$$$$$$$$$$$$$$$",
"$$$$$$$$$$$$$$$$$$$$$$$$$XXXXXXXXXX$$$$$$$$$$$$$$$$$$$$$$$$$$$$$",
"$$$$$$$$$$$$$$$$$$$$$$$$XX.@@OOOOOXXX$$$$$$$$$$$$$$$$$$$$$$$$$$$",
"$$$$$$$$$$$$$$$$$$$$$$XX@@@@OOOOOOOOXX$$$$$$$$$$$$$$$$$$$$$$$$$$",
"$$$$$$$$$$$$$$$$$$$$$XX@@@@OOOOOOOOOOXX$$$$$$$$$$$$$$$$$$$$$$$$$",
"$$$$$$$$$$$$$$$$   XX  @X@O@OOOOOOOO...X$$$$$$$$$$$$$$$$$$$$$$$$",
"$$$$$$$$$$$$$$$$$$    @XXOOOO.OO.OO....XXX$$$$$$$$$$$$$$$$$$$$$$",
"$$$$$$$$$$$$$$$$$$   .XX..OO.OOO.O......   $$$$$$$$$$$$$$$$$$$$$",
"$$$$$$$$$$$$$$     ..X ...OO.OOO.  . . .     $$$$$$$$$$$$$$$$$$$",
"$$$$$$$$$$$$$$$$X      ..  . OO...      ..  $$$$$$$$$$$$$$$$$$$$",
"$$$$$$$$$$$$$$$ .    .  .  .O  ..o.       + $$$$$$$$$$$$$$$$$$$$",
"$$$$$$$$$$$$   .. X..@O@.  ..   .oo.@+ .  .  $$$$$$$$$$$$$$$$$$$",
"$$$$$$$$$$$$$ ..XX.@@OO.. ... . ..o.X@+ .. +XX  $$$$$$$$$$$$$$$$",
"$$$$$$$$$$$  X.@X@.@@@.. ...   . ....X++    OX    $$$$$$$$$$$$$$",
"$$$$$$$$$$  $X.X@@@@@X..      ........X+     OX $ $$$$$$$$$$$$$$",
"$$$$$$$$$$$$X..@@@.  .. O       .......X++.. OXX  $$$$$$$$$$$$$$",
"$$$$$$$$$$$$X..@@@.  .. O       .......X++.. OXX $$$$$$$$$$$$$$$",
"$$.  $$$$$$X..X@.@X  ..OOO   OO .   ...+++...OOX $$$$$$$$$$$$$$$",
"$$.    $$$$X.X@@...  ..OOOO OOO .  . ...XXX...OO  $$$$$$$$$$$$$$",
"$$$.X   $$$..X@@@ O  .OOOOOOOOO . O. @..++X....OX $$$$$   $$$$$$",
"$$$.X+   $X.O@@XX O  OOOOOOO OO . OO   ...XX...OO  $$$  X $$$$$$",
"$$$$..   $$.O@OOOOOOOOOOOO    O   OO    ...XX...OO $$  XX $$$$$$",
"$$$$$.+++  $XOXXOOOOOOOOO   ...O .OO  @ ...+X+..OO $  XXX $$$$$$",
"$$$$$.X+++ XXOOXOOOOOOO   ..+X.OOOOOOO.@   .XX OOO   XXXX $ X$$$",
"$$$$$$X+++XXOOOXOOOOO  ...X++X..OOOOOO..OO ..X  OOX XXXXX    $$$",
"$$$$$XX++XXOOOOOOOOO ..XX++X.OOO.O...O..OO  .. OOOX XXXXX    $$$",
"$$$$XXXX..OOOOOOOOO XXX+@++..OOOOO......OOO  .  OOOX XXXX XO $$$",
"$$$$$X..O.....OOOOO..+++++X.XOO..O.....@..OO   OOOOO XXX XOO  $$",
"$$$$ ...O.OO  OOOOO...@++XXXO.............OOOOOOOOOO  X  OOO. $$",
"$$.. . .O.OO  OOOXoX.X  +XXOO..O.......O..OO  OOO.OXX   XOOO.  $",
"$$.  . O O   OO  ooX... .XOOOO.O.....O..OOOOO OOO.XXXX X.OOO $  ",
"$.           XXX...   . .XOOOXOOOO...O...OOOX.OOO..XX XX.OO. $$$",
"$      +.#  @XX@  #    . OOOOX.OOOO..OOOOOOOX.OO...  XX.OOO. $$$",
"$      +@  @@XX@@+  ++    OOOXX.OOOO.OOOOO.O..OO..  X...OO.  $$$",
"$$    @++@@@X  @@+++++    OOOOX OOOOOOOOO..X.OOO.  X..OOOO. $$$$",
"$$ $$ @@XX..    .@+++@  OOXOOOX .OOOOOOOO.@.OOO.. X..OOOOO.  $$$",
"$$ $  X.....    ..@@+@X OOXOOOO  .OOOOO... .OOO.  XOOOOOOO.X $$$",
"$$ $ X.....   . ....@X  OO OOOOX ..OO...X  .OO.  XXOOOOOOO.X $$$",
"$$$$ X..... ...  ...X  OOX OOOO  X.O..XX.  .OO. .XOOOOO OO. $$$$",
"$$$$  ..oX  ....   .. OOOX OOOOXXX...X.X  .OO...XOOOOOO  O. $$$$",
"$$$$   .o  +++++++ .. OOO  OOOXX.X..XX.   .OO..XOOOOOOOO O. $$$$",
"$$$$$   .  X+++X .  . OOX OOOOX ..X.X    .OO...XOOOOO OO O. $$$$",
"$$$$$ . .. X.X..    X.X   OOOX$ X. .X    .OO..XOOOOOX OO O..  $$",
"$$$$$ $ .. . X .$       OOOOXX$ X. .X   .OOO..XOOOOO  OO  O.X $$",
"$$$$$  $o.$. X$ $.X .    OOXX$$ $. .$  ..OOOOOOOOOOX XOOO O..$ $",
"$$$$$$ $oo$$ $$ $.X .    OOOX$$ $.  $   OOOOOOOOOOXX  OOO O..X$$",
"$$$$$$$$o$$$$$$$....   $ OOX.$$ $$$ $  .OOOOOOOOOOXX  OOO O..X$$",
"$$$$$$$$$$$$$$$....   $$ .OX.$$ $$  $$ .OOOOOOOOO  X  OOO O..X$$",
"$$$$$$$$o$$$$$.....  X$$ .OX.$$$$$ $   .OOOOOOOOX XX X OO OO.X$$",
"$$$$$$$$o$o$$$.X..   $$$ ....$$$$$$$ $X .OOOOO    XXXX OOOOO.X $",
"$$$$$$XXXX$$$$.X.   $$$$ .....$$$$$$ $X .....  $  XXX  OOOOO.X  ",
"$$$$$$  o $$$$.X.  $$$$$..OX...$$$$$$$$ $$$$$$   XX   OOOOOO..X ",
"$$$$$  ..X        .$...  OOXo. .$$$$$$$$$$$$   XXXX  XO.XOOO..X$",
"$$$$  ...  X  ..  $..X  o O  X    $$$$$$$$   XXXX   .X..oO....X$",
"$$$$ ..X. .. ... $..   .X OO ...X  $$$$$$  XXXX   .....XoX....X$",
"$$$$ .X$  ..  .. $.. .$   OO  X$$X  $$$$ XXXXX  ...oo.XooX.$XXX$",
"$$$$XX$$ .... ...$...$$ ..... XX$XX $$$$ XXXX X....o..XXX.XX$$$$"
};
