/* XPM */
static char *result[] = {
/* columns rows colors chars-per-pixel */
"64 64 8 1 ",
"  c #010101",
". c #2C210F",
"X c #483920",
"o c #862E2E",
"O c #82622F",
"+ c #A07878",
"@ c #9B8054",
"# c black",
/* pixels */
"################################################################",
"################################################################",
"################################################################",
"################################################################",
"################################################################",
"################################################################",
"##########################XXXXXXXXXX############################",
"#########################XX.@@OOOOOXXX##########################",
"#######################XX@@@@OOOOOOOOXX#########################",
"######################XX@@@@OOOOOOOOOOXX########################",
"#################   XX  @X@O@OOOOOOOO...XX######################",
"###################    @XXOOOO.OO.OO....XXXX####################",
"###################   .XX..OO.OOO.O.......   ###################",
"###################   .XX..OO.OOO.O.......   ###################",
"###############     ..X ...OO.OOO.  . . ..     #################",
"#################X      ..  . OO...       ..  ##################",
"################ .    .  .  .O  ..o.        + ##################",
"############    .. X..@O@.  ..   .oo.@+ ..  .  #################",
"#############  ..XX.@@OO.. ... . ..o.X@+  .. +XX  ##############",
"###########  XX.@X@.@@@.. ...   . ....X+++    OX    ############",
"##########  #XX.X@@@@@X..      ........X++     OX # ############",
"############X...@@@.  .. O       .......XX++.. OXX  ############",
"############X...@@@.  .. O       .......XX++.. OXX #############",
"##.  ######X...X@.@X  ..OOO   OO .   ...++++...OOX #############",
"##.    ####X.XX@@...  ..OOOO OOO .  . ....XXX...OO  ############",
"###.X   ###..XX@@@ O  .OOOOOOOOO . O. @...++X....OX ############",
"###.X+   #X.O@@@XX O  OOOOOOO OO . OO   ....XX...OO  ###########",
"####..   ##.O@@OOOOOOOOOOOO    O   OO     ...XX...OX ###########",
"#####.+++  #XOOXXOOOOOOOOO   ...O .OO  @  ...+X+.. O ##   ######",
"#####.X+++ XXOOOXOOOOOOO   ..+X.OOOOOOO.@@   .XX O O #  X ######",
"######X+++XXOOOOXOOOOO  ...X++X..OOOOOO...OO ..X  OO   XX ######",
"#####XX++XXOOOOOOOOOO ..XX++X.OOO.O...O...OO  .. OOO  XXX ######",
"####XXXX..OOOOOOOOOO XXX+@++..OOOOO.......OOO  .  OOXXXXX # X###",
"#####X..O......OOOOO..+++++X.XOO..O.....@@..OO    OOOXXXX    ###",
"#### ...O.OO   OOOOO...@++XXXO..............OOOOOOOO XXXX XO ###",
"##.. . .O.OO   OOOXoX.X  +XXOO..O.......OO..OO  OOOO XXX XOO  ##",
"##.  . O O   OOO  ooX... .XOOOO.O.....O...OOOOO OOO.  X  OOO. ##",
"##           XXXX...   . .XOOOXOOOO...O....OOOX.OOOXX   XOOO.  #",
"#.           XXXX...   . .XOOOXOOOO...O....OOOX.OOOXXX X.OOO #  ",
"#      +..  @XXX@  ..   . OOOOX.OOOO..OOOOOOOOX.OO.XX XX.OO. ###",
"#      +@  @@XXX@@+  ++    OOOXX.OOOO.OOOOOO.O..OO.  XX.OOO. ###",
"##    @++@@@X   @@+++++    OOOOX OOOOOOOOOO..X.OO.  X...OO.  ###",
"## ## @@XX..     .@+++@  OOXOOOX .OOOOOOOOO.@.OOO  X..OOOO. ####",
"## #  X.....     ..@@+@X OOXOOOO  .OOOOO.... .OO. X..OOOOO.  ###",
"## # X.....    . ....@X  OO OOOOX ..OO....X  .OO  XOOOOOOO.X ###",
"#### X..... ....  ...X  OOX OOOO  X.O..XXX.  ..  XXOOOOOOO.X ###",
"####  ...X  .....   .. OOOX OOOOXXX...X.XX .OO. .XOOOOO OO. ####",
"####   ..  ++++++++ .. OOO  OOOXX.X..XX.  .OO...XOOOOOO  O. ####",
"#####   o  X++++X .  . OOX OOOXX ..X.    .OOO..XOOOOOOOO O. ####",
"##### . .. X.XX..    X.X   OOXXX X..X    .OO...XOOOOO OO O. ####",
"##### # .. . X# .#       XOOOXXX . .X   .OOO..XOOOOOX OO O..  ##",
"#####  #..#. X# #.X .    OOXXX# #. .#  ..OOO..XOOOOO  OO  O.X ##",
"###### #o.## ## #.X .    OOOXX# #.  #   OOOOOOOOOOOX XOOO O..# #",
"########o#######....   # OOX.## ### #  .OOOOOOOOOOXX  OOO O..X##",
"###############....   ## .OX.## ##  ## .OOOOOOOOO  X  OOO O..X##",
"##############.....  X## .OX.##### #   .OOOOOOOOX XX X OO OO.X##",
"########o#####.X..   ### ....####### #X .OOOOO    XXXX OOOOO.X #",
"######XXXX####.X.   #### .....###### #X .....  #  XXX  OOOOO.X  ",
"######  . ####.X.  #####..OX...######## ######   XX   OOOOOO..X ",
"#####  ..X        .#...  OOXo. .############   XXXX  XO.XOOO..X#",
"####  ...  X  ..  #..X  o O  X    ########   XXXX   .X..oO....X#",
"#### ..X. .. ... #..   .X OO ...X  ######  XXXX   .....XoX....X#",
"#### .X#  ..  .. #.. .#   OO  X##X  #### XXXXX  ...oo.XooX.#XXX#",
"####XX## .... ...#...## ..... XX#XX #### XXXX X....o..XXX.XX####"
};
