/* XPM */
static char *result[] = {
/* columns rows colors chars-per-pixel */
"64 64 9 1 ",
"  c #010101",
". c #2C210F",
"X c #483920",
"o c #862E2E",
"O c #82622F",
"+ c #A07878",
"@ c #9B8054",
"# c #DBCCCC",
"$ c black",
/* pixels */
"$$$$$$$$$$$$$$$$$$$$$$$$$$$$$$$$$$$$$$$$$$$$$$$$$$$$$$$$$$$$$$$$",
"$$$$$$$$$$$$$$$$$$$$$$$$$$$$$$$$$$$$$$$$$$$$$$$$$$$$$$$$$$$$$$$$",
"$$$$$$$$$$$$$$$$$$$$$$$$$$$$$$$$$$$$$$$$$$$$$$$$$$$$$$$$$$$$$$$$",
"$$$$$$$$$$$$$$$$$$$$$$$$$$$$$$$$$$$$$$$$$$$$$$$$$$$$$$$$$$$$$$$$",
"$$$$$$$$$$$$$$$$$$$$$$$$$$$$$$$$$$$$$$$$$$$$$$$$$$$$$$$$$$$$$$$$",
"$$$$$$$$$$$$$$$$$$$$$$$$$$$$$$$$$$$$$$$$$$$$$$$$$$$$$$$$$$$$$$$$",
"$$$$$$$$$$$$$$$$$$$$$$$$$$$$$$$$$$$$$$$$$$$$$$$$$$$$$$$$$$$$$$$$",
"$$$$$$$$$$$$$$$$$$$$$$$$$$$$$$$$$$$$$$$$$$$$$$$$$$$$$$$$$$$$$$$$",
"$$$$$$$$$$$$$$$$$$$$$$$$$$$$$$$$$$$$$$$$$$$$$$$$$$$$$$$$$$$$$$$$",
"$$$$$$$$$$$$$$$$$$$$$$$$$XXXXXXXXXX$$$$$$$$$$$$$$$$$$$$$$$$$$$$$",
"$$$$$$$$$$$$$$$$$$$$$$$$XX.@@OOOOOXXX$$$$$$$$$$$$$$$$$$$$$$$$$$$",
"$$$$$$$$$$$$$$$$$$$$$$XX@@@@OOOOOOOOXX$$$$$$$$$$$$$$$$$$$$$$$$$$",
"$$$$$$$$$$$$$$$$$$$$$XX@@@@OOOOOOOOOOXX$$$$$$$$$$$$$$$$$$$$$$$$$",
"$$$$$$$$$$$$$$$$$   X  @X@O@OOOOOOOO...X$$$$$$$$$$$$$$$$$$$$$$$$",
"$$$$$$$$$$$$$$$$$$$   @XXOOOO.OO.OO....XX$$$$$$$$$$$$$$$$$$$$$$$",
"$$$$$$$$$$$$$$$$$$$  .XX..OO.OOO.O......  $$$$$$$$$$$$$$$$$$$$$$",
"$$$$$$$$$$$$$$$     .X ...OO.OOO.  . . .    $$$$$$$$$$$$$$$$$$$$",
"$$$$$$$$$$$$$$$$$X     ..  . OO...      .  $$$$$$$$$$$$$$$$$$$$$",
"$$$$$$$$$$$$$$$$ .   .  .  .O  ..o.      + $$$$$$$$$$$$$$$$$$$$$",
"$$$$$$$$$$$$$   .. X.@O@.  ..   .oo.@+ . .  $$$$$$$$$$$$$$$$$$$$",
"$$$$$$$$$$$$$$ ..XX.@OO.. ... . ..o.X@+ . +XX  $$$$$$$$$$$$$$$$$",
"$$$$$$$$$$$$  X.@X@.@@.. ...   . ....X++   OX     $$$$$$$$$$$$$$",
"$$$$$$$$$$$  $X.X@@@@X..      ........X+    OX $$ $$$$$$$$$$$$$$",
"$$$$$$$$$$$$$X..@@@. .. O       .......X+.. OXX $$$$$$$$$$$$$$$$",
"$.  $$$$$$$$X..X@.@X ..OOO   OO .   ...++...OOX $$$$$$$$$$$$$$$$",
"$.    $$$$$$X.X@@... ..OOOO OOO .  . ...XX...OO  $$$$$$$$$$$$$$$",
"$$.X   $$$$$..X@@@ O .OOOOOOOOO . O. @..+X....OX $$$$$$$$$$$$$$$",
"$$.X+   $$$X.O@@XX O OOOOOO OOO . OO   ..XX...OO  $$$$$$$$$$$$$$",
"$$$..   $$$X.O@OOOOOOOOOO    OO   OO    ..XX...OX $$$$$   $$$$$$",
"$$$$.+++  $$X.OXXOOOOOOO   ...OO .OO  @ ..+X+.. O  $$$  X $$$$$$",
"$$$$.X+++ XXXOOXOOOOOO   ..+X.OOOOOOOO.@  .XX O O  $$  XX $$$$$$",
"$$$$$X++++XXOOOXOOOO  ...X++X.O.OOOOOO..O ..X  OOX $  XXX $$$$$$",
"$$$$XXX++XXOOOOOOOOO ..XX++X.OOO.O...O..O  .. OOOO   XXXX $ X$$$",
"$$$$XXXX..OOOOOOOOO XXX+@++..OOOOO......OO  .   OOX XXXXX    $$$",
"$$$$$X..O.....OOOOO..+++++X.XOO..O.....@.OO     OOOX XXXX XO $$$",
"$$$$ ...O.OO  OOOOO...@++XXXO............OOOOOOOOOOO XXX XOO  $$",
"$$.. . .O.OO  OOOXoX.X  +XXOO..O.......O.OOO  OOOOOO  X  OOO. $$",
"$$.  . O O   OO  ooX... .XOOOO.O.....O..OOOOO OOO.OXX   XOOO.  $",
"$.           XXX...   . .XOOOXOOOO...O...OOOX.OOO.XXXX X.OOO $  ",
"$      +.#  @XX@  #    . OOOOX.OOOO..OOOOOOOX.OOO..XX XX.OO. $$$",
"$      +@  @@XX@@+  ++    OOOXX.OOOO.OOOOO.O..OO...  XX.OOO. $$$",
"$$    @++@@@X  @@+++++    OOOOX OOOOOOOOO..X.OOO..  X...OO.  $$$",
"$$ $$ @@X...    .@+++@  OOXOOOX .OOOOOOOO.@.OOOO.  X..OOOO. $$$$",
"$$ $  .....   . ....@X  OOXOOOO  .OOOOO... .OOO.. X..OOOOO.  $$$",
"$$ $ X.....   . ....@X  OX OOOOX ..OO...X  .OOO.  XOOOOOOO.X $$$",
"$$$$ X..... ...  ...X  OOX OOOO  X.O..XX.  .OO.  XXOOOOOOO.X $$$",
"$$$$  ..oX  ....   .. OOOX OOOOXXX...X.X  ..OO. .XOOOOO OO. $$$$",
"$$$$   .o  +++++++ .. OOO  OOOXX.X..XX.   .OO...XOOOOOO  O. $$$$",
"$$$$$   .  X+++X .  . OOX OOOOX ..X.X    .OOO..XOOOOOOOO O. $$$$",
"$$$$$ . .. X.X..    X.X   OOOX$ X. .X    .OO...XOOOOO OO O. $$$$",
"$$$$$   .. . X .$       OOOOXX$ X. .X   .OOO..XOOOOOX OO O..  $$",
"$$$$$  $o.$. X$ $.X .    OOXX$$ $. .$  ..OOO..XOOOOO  OO  O.X $$",
"$$$$$$ $oo$$ $$ $.X .    OOOX$$ $.  $   OOOOOOOOOOOX XOOO O..$ $",
"$$$$$$$$o$$$$$$$....   $ OOX.$$ $$$ $  .OOOOOOOOOOXX  OOO O..X$$",
"$$$$$$$$$$$$$$$....   $$ .OX.$$ $$  $$ .OOOOOOOOO  X  OOO O..X$$",
"$$$$$$$$o$$$$$.....  X$$ .OX.$$$$$ $   .OOOOOOOOX XX X OO OO.X$$",
"$$$$$$$$o$o$$$.X..   $$$ ....$$$$$$$ $X .OOOOO    XXXX OOOOO.X $",
"$$$$$$XXXX$$$$.X.   $$$$ .....$$$$$$ $X .....  $  XXX  OOOOO.X  ",
"$$$$$$  o $$$$.X.  $$$$$..OX...$$$$$$$$ $$$$$$   XX   OOOOOO..X ",
"$$$$$  ..X        .$...  OOXo. .$$$$$$$$$$$$   XXXX  XO.XOOO..X$",
"$$$$  ...  X  ..  $..X  o O  X    $$$$$$$$   XXXX   .X..oO....X$",
"$$$$ ..X. .. ... $..   .X OO ...X  $$$$$$  XXXX   .....XoX....X$",
"$$$$ .X$  ..  .. $.. .$   OO  X$$X  $$$$ XXXXX  ...oo.XooX.$XXX$",
"$$$$XX$$ .... ...$...$$ ..... XX$XX $$$$ XXXX X....o..XXX.XX$$$$"
};
