/* XPM */
static char *result[] = {
/* columns rows colors chars-per-pixel */
"64 64 9 1 ",
"  c #010101",
". c #2C210F",
"X c #483920",
"o c #862E2E",
"O c #82622F",
"+ c #A07878",
"@ c #9B8054",
"# c #DBCCCC",
"$ c black",
/* pixels */
"$$$$$$$$$$$$$$$$$$$$$$$$$$$$$$$$$$$$$$$$$$$$$$$$$$$$$$$$$$$$$$$$",
"$$$$$$$$$$$$$$$$$$$$$$$$$$$$$$$$$$$$$$$$$$$$$$$$$$$$$$$$$$$$$$$$",
"$$$$$$$$$$$$$$$$$$$$$$$$$$$$$$$$$$$$$$$$$$$$$$$$$$$$$$$$$$$$$$$$",
"$$$$$$$$$$$$$$$$$$$$$$$$$$$$$$$$$$$$$$$$$$$$$$$$$$$$$$$$$$$$$$$$",
"$$$$$$$$$$$$$$$$$$$$$$$$$$$$$$$$$$$$$$$$$$$$$$$$$$$$$$$$$$$$$$$$",
"$$$$$$$$$$$$$$$$$$$$$$$$$$$$$$$$$$$$$$$$$$$$$$$$$$$$$$$$$$$$$$$$",
"$$$$$$$$$$$$$$$$$$$$$$$$$$$$$$$$$$$$$$$$$$$$$$$$$$$$$$$$$$$$$$$$",
"$$$$$$$$$$$$$$$$$$$$$$$$$$$$$$$$$$$$$$$$$$$$$$$$$$$$$$$$$$$$$$$$",
"$$$$$$$$$$$$$$$$$$$$$$$$$$$$$$$$$$$$$$$$$$$$$$$$$$$$$$$$$$$$$$$$",
"$$$$$$$$$$$$$$$$$$$$$$$$$$$$$$$$$$$$$$$$$$$$$$$$$$$$$$$$$$$$$$$$",
"$$$$$$$$$$$$$$$$$$$$$$$$$$XXXXXXXXX$$$$$$$$$$$$$$$$$$$$$$$$$$$$$",
"$$$$$$$$$$$$$$$$$$$$$$$$$XX+XXOOOOXXX$$$$$$$$$$$$$$$$$$$$$$$$$$$",
"$$$$$$$$$$$$$$$$$$$$$$$XX@@XXOOOOOOOXX$$$$$$$$$$$$$$$$$$$$$$$$$$",
"$$$$$$$$$$$$$$$$$$$ $$XX@@@XOOOOOOOOOXX$$$$$$$$$$$$$$$$$$$$$$$$$",
"$$$$$$$$$$$$$$$$$$$  X  @XXOOOOOOOOO...X$$$$$$$$$$$$$$$$$$$$$$$$",
"$$$$$$$$$$$$$$$$$$$$   @XXOOO.OO.OO....XX$$$$$$$$$$$$$$$$$$$$$$$",
"$$$$$$$$$$$$$$$$$$$$  .XX.OO.OOO.O......  $$$$$$$$$$$$$$$$$$$$$$",
"$$$$$$$$$$$$$$$$$    .X ..OO.OOO.  . . .    $$$$$$$$$$$$$$$$$$$$",
"$$$$$$$$$$$$$$$$ $X     .  . OO...      .  $$$$$$$$$$$$$$$$$$$$$",
"$$$$$$$$$$$$$$$$$ .   .@.  .O  ..o.      + $$$$$$$$$$$$$$$$$$$$$",
"$$$$$$$$$$$$$$   .. X.@@.  ..   .oo.@+ . .  $$$$$$$$$$$$$$$$$$$$",
"$$$$$$$$$$$$$$$ ..XX.@@.. ... . ..o.X@+ . +XX  $$$$$$$$$$$$$$$$$",
"$$$$$$$$$$$$$  X.@X@.@.. ...   . ....X++   OX    $$$$$$$$$$$$$$$",
"$$$$$$$$$$$$  $X.X@.@X..      ........X+    OX $  $$$$$$$$$$$$$$",
"$.  $$$$$$$$$$X..@@. .. O       .......X+.. OXX $$$$$$$$$$$$$$$$",
"$.    $$$$$$$X..X@.X ..OOO   OO .   ...++...OOX $$$$$$$$$$$$$$$$",
"$$.X   $$$$$$X.X@@.. ..OOO  OOO .  . ...XX...OO  $$$$$$$$$$$$$$$",
"$$.X+   $$$$X..X@X O .OOOO  OOO . O. @..+X....OX $$$$$$$$$$$$$$$",
"$$..+   $$$$X.OOXX O OOO    .OO . OO   ..XX...OO  $$$$$   $$$$$$",
"$$$.+++  $$$X.OXXOOOOOO   ...OO   OO    ..XX...OX $$$$  X $$$$$$",
"$$$.X+++  XXXOOXOOOOO   ..+X.OOO .OO  @ ..+X+.. O  $$  XX $$$$$$",
"$$$$X++++ XXOOOXOOO  ...X++X.OOOOOOOOO.@  .XX O OX $  XXX $$$$$$",
"$$$XXX++XXXOOOOOOOO ..XX+++X.OO.OOOOOO..O ..X   OO   XXXX $ X$$$",
"$$$XXXX...OOOOOOOOO XXX+@++..OO..O...O..O  ..   OOX XXXXX    $$$",
"$$$$X...O.....OOOOO..+++++X.XOO.........OO  .   OOOX XXXX XO $$$",
"$$$$ ...O.OO  OOOOO...@++XXXO..........@.OO   OOOOOO XXX XOO  $$",
"$$.. . .O.OO  OOOXoX.X  +XXOO..O.....O.@.OOO  OOOOOO  X  OOO. $$",
"$$.  . O O   OO  ooX... .XOOOO.O.....O...OOOO OOO.OXX   XOOO.  $",
"$.           XXX...   . .XOOOXOOOO...O...OOOX.OOO.XXXX X.OOO $  ",
"$      +.#  @XX@  #    . OOOOX.OOOO..OOOOOOOX.OOO..XX XX.OO. $$$",
"$      +@  @@XX@@+  ++    OOOXX.OOOO.OOOOO.O..OO...  XX.OOO. $$$",
"$$    @++@@@X  @@+++++    OOOOX OOOOOOOOO..X.OOO..  X...OO.  $$$",
"$$ $$ @@XX..    .@+++@  OOXOOOX .OOOOOOOO.@.OOOO.  X..OOOO. $$$$",
"$$ $  X.....    ..@@+@X OOXOOOO  .OOOOO... .OOO.. X..OOOOO.  $$$",
"$$ $ X.....   . ....@X  OO OOOOX ..OO...X  .OOO.  XOOOOOOO.X $$$",
"$$$$ X...oo ...  ...X  OOX OOOO  X.O..XX.  .OO.  XXOOOOOOO.X $$$",
"$$$$  ...X  ....   .. OOOX OOOOXXX...X.X  ..OO. .XOOOOO OO. $$$$",
"$$$$   ..  +++++++ .. OOO  OOOXX.X..XX.   .OO...XOOOOOO  O. $$$$",
"$$$$$   o  X+++X .  . OOX OOOOX ..X.X    .OOO..XOOOOOOOO O. $$$$",
"$$$$$ . o. X.X..    X.X   OOOX$ X. .X    .OO...XOOOOO OO O. $$$$",
"$$$$$ $ o. . X .$       OOOOXX$ X. .X   .OOO..XOOOOOX OO O..  $$",
"$$$$$  $o.$. X$ $.X .    OOXX$$ $. .$  ..OOO..XOOOOO  OO  O.X $$",
"$$$$$$ $oo$$ $$ $.X .    OOOX$$ $.  $   OOOOOOOOOOOX XOOO O..$ $",
"$$$$$$$$$$o$$$$$....   $ OOX.$$ $$$ $  .OOOOOOOOOOXX  OOO O..X$$",
"$$$$$$$$o$o$$$$....   $$ .OX.$$ $$  $$ .OOOOOOOOO  X  OOO O..X$$",
"$$$$$$$$o$$$$$.....  X$$ .OX.$$$$$ $   .OOOOOOOOX XX X OO OO.X$$",
"$$$$$$$$$$$$$$.X..   $$$ ....$$$$$$$ $X .OOOOO    XXXX OOOOO.X $",
"$$$$$$XXXX$$$$.X.   $$$$ .....$$$$$$ $X .....  $  XXX  OOOOO.X  ",
"$$$$$$    $$$$.X.  $$$$$..OX...$$$$$$$$ $$$$$$   XX   OOOOOO..X ",
"$$$$$  ..X        .$...  OOXo. .$$$$$$$$$$$$   XXXX  XO.XOOO..X$",
"$$$$  ...  X  ..  $..X  o O  X    $$$$$$$$   XXXX   .X..oO....X$",
"$$$$ ..X. .. ... $..   .X OO ...X  $$$$$$  XXXX   .....XoX....X$",
"$$$$ .X$  ..  .. $.. .$   OO  X$$X  $$$$ XXXXX  ...oo.XooX.$XXX$",
"$$$$XX$$ .... ...$...$$ ..... XX$XX $$$$ XXXX X....o..XXX.XX$$$$"
};
